<svg aria-hidden="true" style="position: absolute; width: 0; height: 0; overflow: hidden;" version="1.1" xmlns="http://www.w3.org/2000/svg" xmlns:xlink="http://www.w3.org/1999/xlink">
<defs>
<symbol id="icon-bitcoin" viewBox="0 0 21 28">
<path d="M18.234 10c0.203 2.078-0.672 3.328-2.047 4.031 2.281 0.547 3.719 1.906 3.437 4.953-0.359 3.797-3.172 4.813-7.203 5.031v3.984h-2.406v-3.922c-0.609 0-1.25 0-1.906-0.016v3.938h-2.406v-3.984c-0.562 0-1.125-0.016-1.703-0.016h-3.125l0.484-2.859c1.766 0.031 1.734 0 1.734 0 0.672 0 0.859-0.484 0.906-0.797v-6.281h0.25c-0.094-0.016-0.187-0.016-0.25-0.016v-4.484c-0.094-0.5-0.406-1.062-1.391-1.062 0 0 0.031-0.031-1.734 0v-2.562l3.313 0.016c0.484 0 1 0 1.516-0.016v-3.938h2.406v3.859c0.641-0.016 1.281-0.031 1.906-0.031v-3.828h2.406v3.938c3.094 0.266 5.547 1.219 5.812 4.062zM14.875 18.516c0-3.094-5.094-2.641-6.719-2.641v5.281c1.625 0 6.719 0.344 6.719-2.641zM13.766 11.078c0-2.828-4.25-2.406-5.609-2.406v4.797c1.359 0 5.609 0.313 5.609-2.391z"></path>
</symbol>
<symbol id="icon-ethereum" viewBox="0 0 32 32">
<path d="M15.925 23.96l-9.819-5.8 9.817 13.84 9.827-13.84-9.829 5.8zM16.075 0l-9.821 16.297 9.82 5.805 9.82-5.8z"></path>
</symbol>
<symbol id="icon-add-to-list" viewBox="0 0 20 20">
<path d="M19.4 9h-3.4v-3.4c0-0.6-0.4-0.6-1-0.6s-1 0-1 0.6v3.4h-3.4c-0.6 0-0.6 0.4-0.6 1s0 1 0.6 1h3.4v3.4c0 0.6 0.4 0.6 1 0.6s1 0 1-0.6v-3.4h3.4c0.6 0 0.6-0.4 0.6-1s0-1-0.6-1zM7.4 9h-6.8c-0.6 0-0.6 0.4-0.6 1s0 1 0.6 1h6.8c0.6 0 0.6-0.4 0.6-1s0-1-0.6-1zM7.4 14h-6.8c-0.6 0-0.6 0.4-0.6 1s0 1 0.6 1h6.8c0.6 0 0.6-0.4 0.6-1s0-1-0.6-1zM7.4 4h-6.8c-0.6 0-0.6 0.4-0.6 1s0 1 0.6 1h6.8c0.6 0 0.6-0.4 0.6-1s0-1-0.6-1z"></path>
</symbol>
<symbol id="icon-controller-fast-backward" viewBox="0 0 20 20">
<path d="M17.959 4.571l-7.203 4.949c0 0-0.279 0.201-0.279 0.481s0.279 0.479 0.279 0.479l7.203 4.951c0.572 0.38 1.041 0.099 1.041-0.626v-9.609c0-0.727-0.469-1.008-1.041-0.625zM8.883 4.571l-7.203 4.949c0 0-0.279 0.201-0.279 0.481s0.279 0.479 0.279 0.479l7.203 4.951c0.572 0.381 1.041 0.1 1.041-0.625v-9.61c0-0.727-0.469-1.008-1.041-0.625z"></path>
</symbol>
<symbol id="icon-document-landscape" viewBox="0 0 20 20">
<path d="M19 3h-18c-0.552 0-1 0.447-1 1v12c0 0.553 0.448 1 1 1h18c0.552 0 1-0.447 1-1v-12c0-0.553-0.447-1-1-1zM18 15h-16v-10h16v10z"></path>
</symbol>
<symbol id="icon-remove-user" viewBox="0 0 20 20">
<path d="M15.989 19.129c0-2.246-2.187-3.389-4.317-4.307-2.123-0.914-2.801-1.684-2.801-3.334 0-0.989 0.648-0.667 0.932-2.481 0.12-0.752 0.692-0.012 0.802-1.729 0-0.684-0.313-0.854-0.313-0.854s0.159-1.013 0.221-1.793c0.064-0.817-0.398-2.56-2.301-3.095-0.332-0.341-0.557-0.882 0.467-1.424-2.24-0.104-2.761 1.068-3.954 1.93-1.015 0.756-1.289 1.953-1.24 2.59 0.065 0.78 0.223 1.793 0.223 1.793s-0.314 0.17-0.314 0.854c0.11 1.718 0.684 0.977 0.803 1.729 0.284 1.814 0.933 1.492 0.933 2.481 0 1.65-0.212 2.21-2.336 3.124-2.131 0.917-2.794 2.387-2.783 4.516 0.003 0.637-0.011 0.871-0.011 0.871h16c0 0-0.011-0.234-0.011-0.871zM16 10.039l-2.299-2.398-1.061 1.061 2.399 2.298-2.398 2.298 1.061 1.061 2.298-2.398 2.298 2.398 1.061-1.061-2.398-2.298 2.397-2.298-1.061-1.061-2.297 2.398z"></path>
</symbol>
<symbol id="icon-warning" viewBox="0 0 20 20">
<path d="M19.511 17.98l-8.907-16.632c-0.124-0.215-0.354-0.348-0.604-0.348s-0.481 0.133-0.604 0.348l-8.906 16.632c-0.121 0.211-0.119 0.471 0.005 0.68 0.125 0.211 0.352 0.34 0.598 0.34h17.814c0.245 0 0.474-0.129 0.598-0.34 0.124-0.209 0.126-0.469 0.006-0.68zM11 17h-2v-2h2v2zM11 13.5h-2v-6.5h2v6.5z"></path>
</symbol>
<symbol id="icon-bookmark" viewBox="0 0 20 20">
<path d="M14 2v17l-4-4-4 4v-17c0-0.553 0.585-1.020 1-1h6c0.689-0.020 1 0.447 1 1z"></path>
</symbol>
<symbol id="icon-chevron-thin-right" viewBox="0 0 20 20">
<path d="M13.25 10l-7.141-7.42c-0.268-0.27-0.268-0.707 0-0.979 0.268-0.27 0.701-0.27 0.969 0l7.83 7.908c0.268 0.271 0.268 0.709 0 0.979l-7.83 7.908c-0.268 0.271-0.701 0.27-0.969 0s-0.268-0.707 0-0.979l7.141-7.417z"></path>
</symbol>
<symbol id="icon-controller-fast-forward" viewBox="0 0 20 20">
<path d="M9.244 9.52l-7.203-4.949c-0.572-0.383-1.041-0.102-1.041 0.625v9.609c0 0.725 0.469 1.006 1.041 0.625l7.203-4.951c0 0 0.279-0.199 0.279-0.478s-0.279-0.481-0.279-0.481zM18.6 10.001c0 0.279-0.279 0.478-0.279 0.478l-7.203 4.951c-0.572 0.381-1.041 0.1-1.041-0.625v-9.609c0-0.727 0.469-1.008 1.041-0.625l7.202 4.949c0 0 0.28 0.201 0.28 0.481z"></path>
</symbol>
<symbol id="icon-controller-jump-to-start" viewBox="0 0 20 20">
<path d="M14.959 4.571l-7.203 4.949c0 0-0.279 0.201-0.279 0.481s0.279 0.479 0.279 0.479l7.203 4.951c0.572 0.38 1.041 0.099 1.041-0.626v-9.609c0-0.727-0.469-1.008-1.041-0.625zM6 4h-1c-0.553 0-1 0.048-1 0.6v10.8c0 0.552 0.447 0.6 1 0.6h1c0.553 0 1-0.048 1-0.6v-10.8c0-0.552-0.447-0.6-1-0.6z"></path>
</symbol>
<symbol id="icon-controller-next" viewBox="0 0 20 20">
<path d="M12.244 9.52l-7.203-4.949c-0.572-0.383-1.041-0.102-1.041 0.625v9.609c0 0.725 0.469 1.006 1.041 0.625l7.203-4.951c0 0 0.279-0.199 0.279-0.478s-0.279-0.481-0.279-0.481zM14 4h1c0.553 0 1 0.048 1 0.6v10.8c0 0.552-0.447 0.6-1 0.6h-1c-0.553 0-1-0.048-1-0.6v-10.8c0-0.552 0.447-0.6 1-0.6z"></path>
</symbol>
<symbol id="icon-controller-paus" viewBox="0 0 20 20">
<path d="M15 3h-2c-0.553 0-1 0.048-1 0.6v12.8c0 0.552 0.447 0.6 1 0.6h2c0.553 0 1-0.048 1-0.6v-12.8c0-0.552-0.447-0.6-1-0.6zM7 3h-2c-0.553 0-1 0.048-1 0.6v12.8c0 0.552 0.447 0.6 1 0.6h2c0.553 0 1-0.048 1-0.6v-12.8c0-0.552-0.447-0.6-1-0.6z"></path>
</symbol>
<symbol id="icon-controller-play" viewBox="0 0 20 20">
<path d="M15 10.001c0 0.299-0.305 0.514-0.305 0.514l-8.561 5.303c-0.624 0.409-1.134 0.106-1.134-0.669v-10.297c0-0.777 0.51-1.078 1.135-0.67l8.561 5.305c-0.001 0 0.304 0.215 0.304 0.514z"></path>
</symbol>
<symbol id="icon-controller-record" viewBox="0 0 20 20">
<path d="M10 3c-3.866 0-7 3.133-7 7 0 3.865 3.134 7 7 7s7-3.135 7-7c0-3.867-3.134-7-7-7z"></path>
</symbol>
<symbol id="icon-controller-stop" viewBox="0 0 20 20">
<path d="M16 4.995v9.808c0 0.661-0.536 1.197-1.196 1.197h-9.807c-0.551 0-0.997-0.446-0.997-0.997v-9.807c0-0.66 0.536-1.196 1.196-1.196h9.808c0.55 0 0.996 0.446 0.996 0.995z"></path>
</symbol>
<symbol id="icon-controller-volume" viewBox="0 0 20 20">
<path d="M19 13.805c0 0.657-0.538 1.195-1.195 1.195h-16.272c-0.88 0-0.982-0.371-0.229-0.822l16.323-9.055c0.755-0.453 1.373-0.104 1.373 0.777v7.905z"></path>
</symbol>
<symbol id="icon-dots-three-horizontal" viewBox="0 0 20 20">
<path d="M10.001 7.8c-1.215 0-2.201 0.985-2.201 2.2s0.986 2.2 2.201 2.2c1.215 0 2.199-0.985 2.199-2.2s-0.984-2.2-2.199-2.2zM3.001 7.8c-1.215 0-2.201 0.985-2.201 2.2s0.986 2.2 2.201 2.2c1.215 0 2.199-0.986 2.199-2.2s-0.984-2.2-2.199-2.2zM17.001 7.8c-1.215 0-2.201 0.985-2.201 2.2s0.986 2.2 2.201 2.2c1.215 0 2.199-0.985 2.199-2.2s-0.984-2.2-2.199-2.2z"></path>
</symbol>
<symbol id="icon-dots-three-vertical" viewBox="0 0 20 20">
<path d="M10.001 7.8c-1.215 0-2.201 0.985-2.201 2.2s0.986 2.2 2.201 2.2c1.215 0 2.199-0.985 2.199-2.2s-0.984-2.2-2.199-2.2zM10.001 5.2c1.215 0 2.199-0.986 2.199-2.2s-0.984-2.2-2.199-2.2c-1.215 0-2.201 0.985-2.201 2.2s0.986 2.2 2.201 2.2zM10.001 14.8c-1.215 0-2.201 0.985-2.201 2.2s0.986 2.2 2.201 2.2c1.215 0 2.199-0.985 2.199-2.2s-0.984-2.2-2.199-2.2z"></path>
</symbol>
<symbol id="icon-download" viewBox="0 0 20 20">
<path d="M15 7h-3v-6h-4v6h-3l5 5 5-5zM19.338 13.532c-0.21-0.224-1.611-1.723-2.011-2.114-0.265-0.259-0.644-0.418-1.042-0.418h-1.757l3.064 2.994h-3.544c-0.102 0-0.194 0.052-0.24 0.133l-0.816 1.873h-5.984l-0.816-1.873c-0.046-0.081-0.139-0.133-0.24-0.133h-3.544l3.063-2.994h-1.756c-0.397 0-0.776 0.159-1.042 0.418-0.4 0.392-1.801 1.891-2.011 2.114-0.489 0.521-0.758 0.936-0.63 1.449l0.561 3.074c0.128 0.514 0.691 0.936 1.252 0.936h16.312c0.561 0 1.124-0.422 1.252-0.936l0.561-3.074c0.126-0.513-0.142-0.928-0.632-1.449z"></path>
</symbol>
<symbol id="icon-emoji-flirt" viewBox="0 0 20 20">
<path d="M7.5 9.75c0.829 0 1.5-0.783 1.5-1.75s-0.671-1.75-1.5-1.75-1.5 0.784-1.5 1.75 0.672 1.75 1.5 1.75zM10 0.4c-5.302 0-9.6 4.298-9.6 9.6s4.298 9.6 9.6 9.6c5.301 0 9.6-4.298 9.6-9.601 0-5.301-4.299-9.599-9.6-9.599zM10 17.599c-4.197 0-7.6-3.402-7.6-7.6 0-4.197 3.402-7.6 7.6-7.6s7.6 3.403 7.6 7.601c0 4.197-3.403 7.599-7.6 7.599zM14.341 11.336c-0.363-0.187-0.815-0.043-1.008 0.32-0.034 0.065-0.869 1.593-3.332 1.593-2.451 0-3.291-1.513-3.333-1.592-0.188-0.365-0.632-0.514-1.004-0.329-0.37 0.185-0.521 0.636-0.335 1.007 0.050 0.099 1.248 2.414 4.672 2.414 3.425 0 4.621-2.316 4.67-2.415 0.184-0.367 0.036-0.81-0.33-0.998zM11.25 8.75h2.5c0.414 0 0.75-0.336 0.75-0.75s-0.336-0.75-0.75-0.75h-2.5c-0.414 0-0.75 0.336-0.75 0.75s0.336 0.75 0.75 0.75z"></path>
</symbol>
<symbol id="icon-resize-100" viewBox="0 0 20 20">
<path d="M4.1 14.1l-3.1 2.9 2 2 2.9-3.1 2.1 2.1v-6h-6l2.1 2.1zM19 3l-2-2-2.9 3.1-2.1-2.1v6h6l-2.1-2.1 3.1-2.9z"></path>
</symbol>
<symbol id="icon-resize-full-screen" viewBox="0 0 20 20">
<path d="M6.987 10.987l-2.931 3.031-2.056-2.429v6.411h6.387l-2.43-2.081 3.030-2.932-2-2zM11.613 2l2.43 2.081-3.030 2.932 2 2 2.931-3.031 2.056 2.429v-6.411h-6.387z"></path>
</symbol>
<symbol id="icon-save" viewBox="0 0 20 20">
<path d="M15.173 2h-11.173c-1.101 0-2 0.9-2 2v12c0 1.1 0.899 2 2 2h12c1.101 0 2-0.9 2-2v-10.873l-2.827-3.127zM14 8c0 0.549-0.45 1-1 1h-6c-0.55 0-1-0.451-1-1v-5h8v5zM13 4h-2v4h2v-4z"></path>
</symbol>
<symbol id="icon-triangle-down" viewBox="0 0 20 20">
<path d="M5 6h10l-5 9-5-9z"></path>
</symbol>
<symbol id="icon-triangle-left" viewBox="0 0 20 20">
<path d="M14 5v10l-9-5 9-5z"></path>
</symbol>
<symbol id="icon-triangle-right" viewBox="0 0 20 20">
<path d="M15 10l-9 5v-10l9 5z"></path>
</symbol>
<symbol id="icon-triangle-up" viewBox="0 0 20 20">
<path d="M15 14h-10l5-9 5 9z"></path>
</symbol>
<symbol id="icon-upload" viewBox="0 0 20 20">
<path d="M8 12h4v-6h3l-5-5-5 5h3v6zM19.338 13.532c-0.21-0.224-1.611-1.723-2.011-2.114-0.265-0.259-0.644-0.418-1.042-0.418h-1.757l3.064 2.994h-3.544c-0.102 0-0.194 0.052-0.24 0.133l-0.816 1.873h-5.984l-0.816-1.873c-0.046-0.081-0.139-0.133-0.24-0.133h-3.544l3.063-2.994h-1.756c-0.397 0-0.776 0.159-1.042 0.418-0.4 0.392-1.801 1.891-2.011 2.114-0.489 0.521-0.758 0.936-0.63 1.449l0.561 3.074c0.128 0.514 0.691 0.936 1.252 0.936h16.312c0.561 0 1.124-0.422 1.252-0.936l0.561-3.074c0.126-0.513-0.142-0.928-0.632-1.449z"></path>
</symbol>
<symbol id="icon-add-user" viewBox="0 0 20 20">
<path d="M15.989 19.129c0.011-2.129-2.186-3.389-4.317-4.307-2.123-0.914-2.801-1.684-2.801-3.334 0-0.989 0.648-0.667 0.932-2.481 0.12-0.752 0.692-0.012 0.802-1.729 0-0.684-0.313-0.854-0.313-0.854s0.159-1.013 0.221-1.793c0.064-0.817-0.398-2.56-2.301-3.095-0.332-0.341-0.557-0.882 0.467-1.424-2.24-0.104-2.761 1.068-3.954 1.93-1.015 0.756-1.289 1.953-1.24 2.59 0.065 0.78 0.223 1.793 0.223 1.793s-0.314 0.17-0.314 0.854c0.11 1.718 0.684 0.977 0.803 1.729 0.284 1.814 0.933 1.492 0.933 2.481 0 1.65-0.212 2.21-2.336 3.124-2.131 0.917-2.794 2.387-2.783 4.516 0.003 0.637-0.011 0.871-0.011 0.871h16c0 0-0.014-0.234-0.011-0.871zM17 10v-3h-2v3h-3v2h3v3h2v-3h3v-2h-3z"></path>
</symbol>
<symbol id="icon-attachment" viewBox="0 0 20 20">
<path d="M5.602 19.8c-1.293 0-2.504-0.555-3.378-1.44-1.695-1.716-2.167-4.711 0.209-7.116 1.391-1.408 6.966-7.053 9.748-9.87 0.988-1 2.245-1.387 3.448-1.060 1.183 0.32 2.151 1.301 2.468 2.498 0.322 1.22-0.059 2.493-1.046 3.493l-9.323 9.44c-0.532 0.539-1.134 0.858-1.738 0.922-0.599 0.064-1.17-0.13-1.57-0.535-0.724-0.736-0.828-2.117 0.378-3.337l6.548-6.63c0.269-0.272 0.705-0.272 0.974 0s0.269 0.714 0 0.986l-6.549 6.631c-0.566 0.572-0.618 1.119-0.377 1.364 0.106 0.106 0.266 0.155 0.451 0.134 0.283-0.029 0.606-0.216 0.909-0.521l9.323-9.439c0.64-0.648 0.885-1.41 0.69-2.145-0.192-0.725-0.778-1.318-1.493-1.513-0.726-0.197-1.48 0.052-2.12 0.7-2.782 2.818-8.356 8.462-9.748 9.87-1.816 1.839-1.381 3.956-0.209 5.143 1.173 1.187 3.262 1.629 5.079-0.212l9.748-9.87c0.269-0.272 0.705-0.272 0.974 0s0.269 0.714 0 0.987l-9.748 9.87c-1.149 1.162-2.436 1.65-3.648 1.65z"></path>
</symbol>
<symbol id="icon-bell" viewBox="0 0 20 20">
<path d="M14.65 8.512c-2.28-4.907-3.466-6.771-7.191-6.693-1.327 0.027-1.009-0.962-2.021-0.587-1.010 0.375-0.143 0.924-1.177 1.773-2.902 2.383-2.635 4.587-1.289 9.84 0.567 2.213-1.367 2.321-0.602 4.465 0.559 1.564 4.679 2.219 9.025 0.607s7.086-4.814 6.527-6.378c-0.765-2.145-2.311-0.961-3.272-3.027zM10.924 16.595c-3.882 1.44-7.072 0.594-7.207 0.217-0.232-0.65 1.253-2.816 5.691-4.463s6.915-1.036 7.174-0.311c0.153 0.429-1.775 3.116-5.658 4.557zM9.676 13.101c-2.029 0.753-3.439 1.614-4.353 2.389 0.643 0.584 1.847 0.726 3.046 0.281 1.527-0.565 2.466-1.866 2.095-2.904-0.005-0.013-0.011-0.023-0.016-0.036-0.251 0.082-0.508 0.171-0.772 0.27z"></path>
</symbol>
<symbol id="icon-calendar" viewBox="0 0 20 20">
<path d="M17 3h-1v2h-3v-2h-6v2h-3v-2h-1c-1.101 0-2 0.9-2 2v12c0 1.1 0.899 2 2 2h14c1.1 0 2-0.9 2-2v-12c0-1.1-0.9-2-2-2zM17 17h-14v-8h14v8zM6.5 1h-2v3.5h2v-3.5zM15.5 1h-2v3.5h2v-3.5z"></path>
</symbol>
<symbol id="icon-camera" viewBox="0 0 20 20">
<path d="M10 8c-1.657 0-3 1.344-3 3s1.343 3 3 3c1.656 0 3-1.344 3-3s-1.344-3-3-3zM18 5h-2.4c-0.33 0-0.686-0.256-0.789-0.57l-0.621-1.861c-0.105-0.313-0.459-0.569-0.79-0.569h-6.8c-0.33 0-0.686 0.256-0.789 0.568l-0.622 1.862c-0.104 0.314-0.459 0.57-0.789 0.57h-2.4c-1.1 0-2 0.9-2 2v9c0 1.1 0.9 2 2 2h16c1.1 0 2-0.9 2-2v-9c0-1.1-0.9-2-2-2zM10 16c-2.762 0-5-2.238-5-5s2.238-5 5-5c2.761 0 5 2.238 5 5s-2.239 5-5 5zM17.5 8.2c-0.387 0-0.7-0.314-0.7-0.701 0-0.385 0.313-0.7 0.7-0.7s0.7 0.314 0.7 0.7c0 0.387-0.313 0.701-0.7 0.701z"></path>
</symbol>
<symbol id="icon-chat" viewBox="0 0 20 20">
<path d="M5.8 12.2v-6.2h-3.8c-1.1 0-2 0.9-2 2v6c0 1.1 0.9 2 2 2h1v3l3-3h5c1.1 0 2-0.9 2-2v-1.82c-0.064 0.014-0.132 0.021-0.2 0.021l-7-0.001zM18 1h-9c-1.1 0-2 0.9-2 2v8h7l3 3v-3h1c1.1 0 2-0.899 2-2v-6c0-1.1-0.9-2-2-2z"></path>
</symbol>
<symbol id="icon-check" viewBox="0 0 20 20">
<path d="M8.294 16.998c-0.435 0-0.847-0.203-1.111-0.553l-3.573-4.721c-0.465-0.613-0.344-1.486 0.27-1.951 0.615-0.467 1.488-0.344 1.953 0.27l2.351 3.104 5.911-9.492c0.407-0.652 1.267-0.852 1.921-0.445s0.854 1.266 0.446 1.92l-6.984 11.21c-0.242 0.391-0.661 0.635-1.12 0.656-0.022 0.002-0.042 0.002-0.064 0.002z"></path>
</symbol>
<symbol id="icon-circle-with-cross" viewBox="0 0 20 20">
<path d="M10 1.6c-4.639 0-8.4 3.761-8.4 8.4s3.761 8.4 8.4 8.4 8.4-3.761 8.4-8.4c0-4.639-3.761-8.4-8.4-8.4zM14.789 13.061l-1.729 1.729-3.060-3.061-3.061 3.060-1.729-1.729 3.062-3.060-3.061-3.061 1.729-1.728 3.060 3.060 3.061-3.061 1.729 1.729-3.062 3.061 3.061 3.061z"></path>
</symbol>
<symbol id="icon-circle-with-minus" viewBox="0 0 20 20">
<path d="M10 1.6c-4.639 0-8.4 3.761-8.4 8.4s3.761 8.4 8.4 8.4 8.4-3.761 8.4-8.4c0-4.639-3.761-8.4-8.4-8.4zM15 11h-10v-2h10v2z"></path>
</symbol>
<symbol id="icon-circle-with-plus" viewBox="0 0 20 20">
<path d="M10 1.6c-4.639 0-8.4 3.761-8.4 8.4s3.761 8.4 8.4 8.4 8.4-3.761 8.4-8.4c0-4.639-3.761-8.4-8.4-8.4zM15 11h-4v4h-2v-4h-4v-2h4v-4h2v4h4v2z"></path>
</symbol>
<symbol id="icon-cog" viewBox="0 0 20 20">
<path d="M16.783 10c0-1.049 0.646-1.875 1.617-2.443-0.176-0.584-0.407-1.145-0.692-1.672-1.089 0.285-1.97-0.141-2.711-0.883-0.741-0.74-0.968-1.621-0.683-2.711-0.527-0.285-1.088-0.518-1.672-0.691-0.568 0.97-1.595 1.615-2.642 1.615-1.048 0-2.074-0.645-2.643-1.615-0.585 0.173-1.144 0.406-1.671 0.691 0.285 1.090 0.059 1.971-0.684 2.711-0.74 0.742-1.621 1.168-2.711 0.883-0.285 0.527-0.517 1.088-0.691 1.672 0.97 0.568 1.615 1.394 1.615 2.443 0 1.047-0.645 2.074-1.615 2.643 0.175 0.584 0.406 1.144 0.691 1.672 1.090-0.285 1.971-0.059 2.711 0.682s0.969 1.623 0.684 2.711c0.527 0.285 1.087 0.518 1.672 0.693 0.568-0.973 1.595-1.617 2.643-1.617 1.047 0 2.074 0.645 2.643 1.617 0.584-0.176 1.144-0.408 1.672-0.693-0.285-1.088-0.059-1.969 0.683-2.711 0.741-0.74 1.622-1.166 2.711-0.883 0.285-0.527 0.517-1.086 0.692-1.672-0.973-0.569-1.619-1.395-1.619-2.442zM10 13.652c-2.018 0-3.653-1.635-3.653-3.652 0-2.018 1.636-3.654 3.653-3.654s3.652 1.637 3.652 3.654c0 2.018-1.634 3.652-3.652 3.652z"></path>
</symbol>
<symbol id="icon-credit-card" viewBox="0 0 20 20">
<path d="M18 3h-16c-1.101 0-2 0.9-2 2v10c0 1.1 0.899 2 2 2h16c1.1 0 2-0.9 2-2v-10c0-1.1-0.9-2-2-2zM18 15h-16v-6h16v6zM18 6h-16v-1h16v1zM4 11.1v0.6h0.6v-0.6h-0.6zM7.6 12.299v0.601h1.2v-0.601h0.6v-0.6h0.6v-0.6h-1.2v0.6h-0.601v0.6h-0.599zM10 12.9v-0.601h-0.601v0.601h0.601zM7 12.9v-0.601h-1.2v0.601h1.2zM7.6 11.699h0.6v-0.6h-1.2v1.199h0.6v-0.599zM5.199 12.299h0.601v-0.6h0.6v-0.6h-1.2v0.6h-0.6v0.6h-0.6v0.601h1.199v-0.601z"></path>
</symbol>
<symbol id="icon-cross" viewBox="0 0 20 20">
<path d="M14.348 14.849c-0.469 0.469-1.229 0.469-1.697 0l-2.651-3.030-2.651 3.029c-0.469 0.469-1.229 0.469-1.697 0-0.469-0.469-0.469-1.229 0-1.697l2.758-3.15-2.759-3.152c-0.469-0.469-0.469-1.228 0-1.697s1.228-0.469 1.697 0l2.652 3.031 2.651-3.031c0.469-0.469 1.228-0.469 1.697 0s0.469 1.229 0 1.697l-2.758 3.152 2.758 3.15c0.469 0.469 0.469 1.229 0 1.698z"></path>
</symbol>
<symbol id="icon-dial-pad" viewBox="0 0 20 20">
<path d="M6 0h-2c-0.552 0-1 0.448-1 1v2c0 0.552 0.448 1 1 1h2c0.552 0 1-0.448 1-1v-2c0-0.552-0.448-1-1-1zM11 0h-2c-0.552 0-1 0.448-1 1v2c0 0.552 0.448 1 1 1h2c0.552 0 1-0.448 1-1v-2c0-0.552-0.448-1-1-1zM16 0h-2c-0.552 0-1 0.448-1 1v2c0 0.552 0.448 1 1 1h2c0.552 0 1-0.448 1-1v-2c0-0.552-0.448-1-1-1zM6 5h-2c-0.552 0-1 0.448-1 1v2c0 0.552 0.448 1 1 1h2c0.552 0 1-0.448 1-1v-2c0-0.552-0.448-1-1-1zM11 5h-2c-0.552 0-1 0.448-1 1v2c0 0.552 0.448 1 1 1h2c0.552 0 1-0.448 1-1v-2c0-0.552-0.448-1-1-1zM16 5h-2c-0.552 0-1 0.448-1 1v2c0 0.552 0.448 1 1 1h2c0.552 0 1-0.448 1-1v-2c0-0.552-0.448-1-1-1zM6 10h-2c-0.552 0-1 0.448-1 1v2c0 0.552 0.448 1 1 1h2c0.552 0 1-0.448 1-1v-2c0-0.552-0.448-1-1-1zM11 10h-2c-0.552 0-1 0.448-1 1v2c0 0.552 0.448 1 1 1h2c0.552 0 1-0.448 1-1v-2c0-0.552-0.448-1-1-1zM11 16h-2c-0.552 0-1 0.448-1 1v2c0 0.552 0.448 1 1 1h2c0.552 0 1-0.448 1-1v-2c0-0.552-0.448-1-1-1zM16 10h-2c-0.552 0-1 0.448-1 1v2c0 0.552 0.448 1 1 1h2c0.552 0 1-0.448 1-1v-2c0-0.552-0.448-1-1-1z"></path>
</symbol>
<symbol id="icon-edit" viewBox="0 0 20 20">
<path d="M17.561 2.439c-1.442-1.443-2.525-1.227-2.525-1.227l-12.826 12.825-1.010 4.762 4.763-1.010 12.826-12.823c-0.001 0 0.216-1.083-1.228-2.527zM5.68 17.217l-1.624 0.35c-0.156-0.293-0.345-0.586-0.69-0.932s-0.639-0.533-0.932-0.691l0.35-1.623 0.47-0.469c0 0 0.883 0.018 1.881 1.016 0.997 0.996 1.016 1.881 1.016 1.881l-0.471 0.468z"></path>
</symbol>
<symbol id="icon-email" viewBox="0 0 20 20">
<path d="M14.608 12.172c0 0.84 0.239 1.175 0.864 1.175 1.393 0 2.28-1.775 2.28-4.727 0-4.512-3.288-6.672-7.393-6.672-4.223 0-8.064 2.832-8.064 8.184 0 5.112 3.36 7.896 8.52 7.896 1.752 0 2.928-0.192 4.727-0.792l0.386 1.607c-1.776 0.577-3.674 0.744-5.137 0.744-6.768 0-10.393-3.72-10.393-9.456 0-5.784 4.201-9.72 9.985-9.72 6.024 0 9.215 3.6 9.215 8.016 0 3.744-1.175 6.6-4.871 6.6-1.681 0-2.784-0.672-2.928-2.161-0.432 1.656-1.584 2.161-3.145 2.161-2.088 0-3.84-1.609-3.84-4.848 0-3.264 1.537-5.28 4.297-5.28 1.464 0 2.376 0.576 2.782 1.488l0.697-1.272h2.016v7.057h0.002zM11.657 9.004c0-1.319-0.985-1.872-1.801-1.872-0.888 0-1.871 0.719-1.871 2.832 0 1.68 0.744 2.616 1.871 2.616 0.792 0 1.801-0.504 1.801-1.896v-1.68z"></path>
</symbol>
<symbol id="icon-emoji-happy" viewBox="0 0 20 20">
<path d="M10 0.4c-5.302 0-9.6 4.298-9.6 9.6s4.298 9.6 9.6 9.6c5.301 0 9.6-4.298 9.6-9.601 0-5.301-4.299-9.599-9.6-9.599zM10 17.599c-4.197 0-7.6-3.402-7.6-7.6s3.402-7.599 7.6-7.599c4.197 0 7.601 3.402 7.601 7.6s-3.404 7.599-7.601 7.599zM7.501 9.75c0.828 0 1.499-0.783 1.499-1.75s-0.672-1.75-1.5-1.75-1.5 0.783-1.5 1.75 0.672 1.75 1.501 1.75zM12.5 9.75c0.829 0 1.5-0.783 1.5-1.75s-0.672-1.75-1.5-1.75-1.5 0.784-1.5 1.75 0.672 1.75 1.5 1.75zM14.341 11.336c-0.363-0.186-0.815-0.043-1.008 0.32-0.034 0.066-0.869 1.593-3.332 1.593-2.451 0-3.291-1.513-3.333-1.592-0.188-0.365-0.632-0.514-1.004-0.329-0.37 0.186-0.52 0.636-0.335 1.007 0.050 0.099 1.248 2.414 4.672 2.414 3.425 0 4.621-2.316 4.67-2.415 0.184-0.367 0.036-0.81-0.33-0.998z"></path>
</symbol>
<symbol id="icon-emoji-neutral" viewBox="0 0 20 20">
<path d="M10 0.4c-5.302 0-9.6 4.298-9.6 9.6s4.298 9.6 9.6 9.6c5.301 0 9.6-4.298 9.6-9.601 0-5.301-4.299-9.599-9.6-9.599zM10 17.599c-4.197 0-7.6-3.402-7.6-7.6 0-4.197 3.402-7.6 7.6-7.6 4.197 0 7.6 3.402 7.6 7.6s-3.403 7.6-7.6 7.6zM12.5 6.251c-0.828 0-1.5 0.783-1.5 1.749s0.672 1.75 1.5 1.75c0.829 0 1.5-0.783 1.5-1.75s-0.671-1.749-1.5-1.749zM7.501 9.75c0.828 0 1.499-0.783 1.499-1.75s-0.672-1.75-1.5-1.75c-0.828 0-1.5 0.783-1.5 1.75s0.672 1.75 1.501 1.75zM13 12.25h-6c-0.414 0-0.75 0.336-0.75 0.75s0.336 0.75 0.75 0.75h6c0.414 0 0.75-0.336 0.75-0.75s-0.335-0.75-0.75-0.75z"></path>
</symbol>
<symbol id="icon-emoji-sad" viewBox="0 0 20 20">
<path d="M10.001 0.4c-5.303 0-9.601 4.298-9.601 9.6 0 5.303 4.298 9.601 9.601 9.601 5.301 0 9.6-4.298 9.6-9.601s-4.3-9.6-9.6-9.6zM10 17.599c-4.197 0-7.6-3.402-7.6-7.6 0-4.197 3.402-7.6 7.6-7.6 4.197 0 7.6 3.402 7.6 7.6s-3.403 7.6-7.6 7.6zM12.501 9.75c0.828 0 1.5-0.783 1.5-1.75s-0.672-1.75-1.5-1.75c-0.828 0-1.5 0.783-1.5 1.75s0.671 1.75 1.5 1.75zM7.501 9.75c0.828 0 1.5-0.783 1.5-1.75s-0.672-1.75-1.5-1.75c-0.828 0-1.5 0.783-1.5 1.75s0.671 1.75 1.5 1.75zM10.002 11.25c-3.424 0-4.622 2.315-4.672 2.414-0.186 0.371-0.035 0.821 0.335 1.007 0.108 0.053 0.222 0.079 0.335 0.079 0.275 0 0.54-0.151 0.672-0.414 0.008-0.017 0.822-1.586 3.33-1.586 2.463 0 3.298 1.527 3.328 1.585 0.184 0.37 0.635 0.523 1.006 0.336 0.371-0.184 0.521-0.636 0.336-1.006-0.049-0.099-1.246-2.415-4.67-2.415z"></path>
</symbol>
<symbol id="icon-erase" viewBox="0 0 20 20">
<path d="M18 3h-9.554c-0.44 0-1.071 0.236-1.402 0.525l-6.796 5.948c-0.331 0.289-0.331 0.764 0 1.053l6.796 5.947c0.331 0.289 0.962 0.527 1.402 0.527h9.554c1.1 0 2-0.9 2-2v-10c0-1.1-0.9-2-2-2zM15.191 14l-2.557-2.557-2.556 2.557-1.443-1.443 2.556-2.557-2.556-2.557 1.443-1.443 2.557 2.555 2.555-2.555 1.444 1.443-2.556 2.557 2.557 2.555-1.444 1.445z"></path>
</symbol>
<symbol id="icon-eye" viewBox="0 0 20 20">
<path d="M10 4.4c-6.561 0-10 4.832-10 5.6 0 0.766 3.439 5.6 10 5.6s10-4.834 10-5.6c0-0.768-3.44-5.6-10-5.6zM10 14.307c-2.455 0-4.445-1.928-4.445-4.307s1.99-4.309 4.445-4.309c2.455 0 4.444 1.93 4.444 4.309s-1.989 4.307-4.444 4.307zM10 10c-0.407-0.447 0.663-2.154 0-2.154-1.228 0-2.223 0.965-2.223 2.154s0.995 2.154 2.223 2.154c1.227 0 2.223-0.965 2.223-2.154 0-0.547-1.877 0.379-2.223 0z"></path>
</symbol>
<symbol id="icon-folder" viewBox="0 0 20 20">
<path d="M18.405 4.799c-0.111-0.44-0.655-0.799-1.21-0.799h-6.814c-0.554 0-1.33-0.318-1.722-0.707l-0.596-0.588c-0.392-0.389-1.167-0.705-1.721-0.705h-3.255c-0.555 0-1.059 0.447-1.12 0.994l-0.292 3.006h16.931l-0.201-1.201zM19.412 7h-18.824c-0.342 0-0.61 0.294-0.577 0.635l0.923 9.669c0.037 0.394 0.369 0.696 0.766 0.696h16.6c0.397 0 0.728-0.302 0.766-0.696l0.923-9.669c0.033-0.341-0.235-0.635-0.577-0.635z"></path>
</symbol>
<symbol id="icon-globe" viewBox="0 0 20 20">
<path d="M10 0.4c-5.295 0-9.601 4.307-9.601 9.6s4.306 9.6 9.601 9.6c5.293 0 9.6-4.307 9.6-9.6s-4.307-9.6-9.6-9.6zM18.188 10c0 1.873-0.636 3.6-1.696 4.98-0.3-0.234-0.619-0.867-0.319-1.523 0.303-0.66 0.382-2.188 0.312-2.783-0.066-0.594-0.375-2.025-1.214-2.039-0.838-0.012-1.413-0.289-1.911-1.283-1.033-2.068 1.939-2.465 0.906-3.609-0.289-0.322-1.783 1.322-2.002-0.869-0.014-0.157 0.135-0.392 0.336-0.636 3.244 1.090 5.588 4.157 5.588 7.762zM8.875 1.893c-0.196 0.382-0.713 0.537-1.027 0.824-0.684 0.619-0.978 0.533-1.346 1.127-0.371 0.594-1.567 1.449-1.567 1.879s0.604 0.936 0.906 0.838c0.302-0.1 1.099-0.094 1.567 0.070 0.469 0.166 3.914 0.332 2.816 3.244-0.348 0.926-1.873 0.77-2.279 2.303-0.061 0.225-0.272 1.186-0.285 1.5-0.025 0.486 0.344 2.318-0.125 2.318-0.471 0-1.738-1.639-1.738-1.936s-0.328-1.338-0.328-2.23c0-0.891-1.518-0.877-1.518-2.062 0-1.068 0.823-1.6 0.638-2.113-0.181-0.51-1.627-0.527-2.23-0.59 1.053-2.731 3.53-4.758 6.516-5.172zM7.424 17.77c0.492-0.26 0.542-0.596 0.988-0.613 0.51-0.023 0.925-0.199 1.5-0.326 0.51-0.111 1.423-0.629 2.226-0.695 0.678-0.055 2.015 0.035 2.375 0.689-1.295 0.861-2.848 1.363-4.514 1.363-0.899 0-1.765-0.149-2.575-0.418z"></path>
</symbol>
<symbol id="icon-graduation-cap" viewBox="0 0 20 20">
<path d="M3.302 12.238c0.464 1.879 1.054 2.701 3.022 3.562 1.969 0.86 2.904 1.8 3.676 1.8s1.648-0.822 3.616-1.684c1.969-0.861 1.443-1.123 1.907-3.002l-5.523 2.686-6.698-3.362zM19.511 7.336l-8.325-4.662c-0.652-0.365-1.72-0.365-2.372 0l-8.326 4.662c-0.652 0.365-0.652 0.963 0 1.328l8.325 4.662c0.652 0.365 1.72 0.365 2.372 0l5.382-3.014-5.836-1.367c-0.225 0.055-0.472 0.086-0.731 0.086-1.052 0-1.904-0.506-1.904-1.131 0-0.627 0.853-1.133 1.904-1.133 0.816 0 1.51 0.307 1.78 0.734l6.182 2.029 1.549-0.867c0.651-0.364 0.651-0.962 0-1.327zM16.967 16.17c-0.065 0.385 1.283 1.018 1.411-0.107 0.579-5.072-0.416-6.531-0.416-6.531l-1.395 0.781c0-0.001 1.183 1.125 0.4 5.857z"></path>
</symbol>
<symbol id="icon-heart-outlined" viewBox="0 0 20 20">
<path d="M17.19 4.156c-1.672-1.535-4.383-1.535-6.055 0l-1.135 1.041-1.136-1.041c-1.672-1.535-4.382-1.535-6.054 0-1.881 1.726-1.881 4.519 0 6.245l7.19 6.599 7.19-6.599c1.88-1.726 1.88-4.52 0-6.245zM16.124 9.375l-6.124 5.715-6.125-5.715c-0.617-0.567-0.856-1.307-0.856-2.094s0.138-1.433 0.756-1.999c0.545-0.501 1.278-0.777 2.063-0.777s1.517 0.476 2.062 0.978l2.1 1.825 2.099-1.826c0.546-0.502 1.278-0.978 2.063-0.978s1.518 0.276 2.063 0.777c0.618 0.566 0.755 1.212 0.755 1.999s-0.238 1.528-0.856 2.095z"></path>
</symbol>
<symbol id="icon-heart" viewBox="0 0 20 20">
<path d="M17.19 4.155c-1.672-1.534-4.383-1.534-6.055 0l-1.135 1.042-1.136-1.042c-1.672-1.534-4.382-1.534-6.054 0-1.881 1.727-1.881 4.52 0 6.246l7.19 6.599 7.19-6.599c1.88-1.726 1.88-4.52 0-6.246z"></path>
</symbol>
<symbol id="icon-help-with-circle" viewBox="0 0 20 20">
<path d="M10 0.4c-5.302 0-9.6 4.298-9.6 9.6s4.298 9.6 9.6 9.6c5.301 0 9.6-4.298 9.6-9.601 0-5.301-4.299-9.599-9.6-9.599zM9.849 15.599h-0.051c-0.782-0.023-1.334-0.6-1.311-1.371 0.022-0.758 0.587-1.309 1.343-1.309l0.046 0.002c0.804 0.023 1.35 0.594 1.327 1.387-0.023 0.76-0.578 1.291-1.354 1.291zM13.14 9.068c-0.184 0.26-0.588 0.586-1.098 0.983l-0.562 0.387c-0.308 0.24-0.494 0.467-0.563 0.688-0.056 0.174-0.082 0.221-0.087 0.576v0.090h-2.145l0.006-0.182c0.027-0.744 0.045-1.184 0.354-1.547 0.485-0.568 1.555-1.258 1.6-1.287 0.154-0.115 0.283-0.246 0.379-0.387 0.225-0.311 0.324-0.555 0.324-0.793 0-0.334-0.098-0.643-0.293-0.916-0.188-0.266-0.545-0.398-1.061-0.398-0.512 0-0.863 0.162-1.072 0.496-0.216 0.341-0.325 0.7-0.325 1.067v0.092h-2.211l0.004-0.096c0.057-1.353 0.541-2.328 1.435-2.897 0.563-0.361 1.264-0.544 2.081-0.544 1.068 0 1.972 0.26 2.682 0.772 0.721 0.519 1.086 1.297 1.086 2.311-0.001 0.567-0.18 1.1-0.534 1.585z"></path>
</symbol>
<symbol id="icon-home" viewBox="0 0 20 20">
<path d="M18.672 11h-1.672v6c0 0.445-0.194 1-1 1h-4v-6h-4v6h-4c-0.806 0-1-0.555-1-1v-6h-1.672c-0.598 0-0.47-0.324-0.060-0.748l8.024-8.032c0.195-0.202 0.451-0.302 0.708-0.312 0.257 0.010 0.513 0.109 0.708 0.312l8.023 8.031c0.411 0.425 0.539 0.749-0.059 0.749z"></path>
</symbol>
<symbol id="icon-image-inverted" viewBox="0 0 20 20">
<path d="M18 3h-16c-0.553 0-1 0.447-1 1v12c0 0.552 0.447 1 1 1h16c0.553 0 1-0.448 1-1v-12c0-0.552-0.447-1-1-1zM13.25 6.5c0.69 0 1.25 0.56 1.25 1.25s-0.56 1.25-1.25 1.25-1.25-0.56-1.25-1.25 0.56-1.25 1.25-1.25zM4 14l3.314-7.619 3.769 6.102 3.231-1.605 1.686 3.122h-12z"></path>
</symbol>
<symbol id="icon-image" viewBox="0 0 20 20">
<path d="M19 2h-18c-0.553 0-1 0.447-1 1v14c0 0.552 0.447 1 1 1h18c0.553 0 1-0.448 1-1v-14c0-0.552-0.447-1-1-1zM18 16h-16v-12h16v12zM14.315 10.877l-3.231 1.605-3.77-6.101-3.314 7.619h12l-1.685-3.123zM13.25 9c0.69 0 1.25-0.56 1.25-1.25s-0.56-1.25-1.25-1.25-1.25 0.56-1.25 1.25 0.56 1.25 1.25 1.25z"></path>
</symbol>
<symbol id="icon-info-with-circle" viewBox="0 0 20 20">
<path d="M10 0.4c-5.303 0-9.601 4.298-9.601 9.6 0 5.303 4.298 9.601 9.601 9.601 5.301 0 9.6-4.298 9.6-9.601s-4.299-9.6-9.6-9.6zM10.896 3.866c0.936 0 1.211 0.543 1.211 1.164 0 0.775-0.62 1.492-1.679 1.492-0.886 0-1.308-0.445-1.282-1.182 0-0.621 0.519-1.474 1.75-1.474zM8.498 15.75c-0.64 0-1.107-0.389-0.66-2.094l0.733-3.025c0.127-0.484 0.148-0.678 0-0.678-0.191 0-1.022 0.334-1.512 0.664l-0.319-0.523c1.555-1.299 3.343-2.061 4.108-2.061 0.64 0 0.746 0.756 0.427 1.92l-0.84 3.18c-0.149 0.562-0.085 0.756 0.064 0.756 0.192 0 0.82-0.232 1.438-0.719l0.362 0.486c-1.513 1.512-3.162 2.094-3.801 2.094z"></path>
</symbol>
<symbol id="icon-key" viewBox="0 0 20 20">
<path d="M17.691 4.725c-0.503-2.977-3.22-4.967-6.069-4.441s-5.256 2.816-4.753 5.795c0.107 0.641 0.408 1.644 0.763 2.365l-5.175 7.723c-0.191 0.285-0.299 0.799-0.242 1.141l0.333 1.971c0.058 0.342 0.372 0.572 0.7 0.514l1.516-0.281c0.328-0.059 0.744-0.348 0.924-0.639l2.047-3.311 0.018-0.022 1.386-0.256 2.39-3.879c0.785 0.139 1.912 0.092 2.578-0.031 2.848-0.526 4.087-3.67 3.584-6.649zM15.166 6.252c-0.784 1.17-1.584 0.346-2.703-0.475-1.119-0.818-2.135-1.322-1.352-2.492s2.326-1.455 3.447-0.635c1.12 0.819 1.391 2.432 0.608 3.602z"></path>
</symbol>
<symbol id="icon-keyboard" viewBox="0 0 20 20">
<path d="M18.6 4h-17.2c-0.771 0-1.4 0.629-1.4 1.4v9.2c0 0.769 0.629 1.4 1.399 1.4h17.2c0.77 0 1.4-0.631 1.4-1.4v-9.2c0.001-0.771-0.63-1.4-1.399-1.4zM11 6h2v2h-2v-2zM14 9v2h-2v-2h2zM8 6h2v2h-2v-2zM11 9v2h-2v-2h2zM5 6h2v2h-2v-2zM8 9v2h-2v-2h2zM2 6h2v2h-2v-2zM5 9v2h-2v-2h2zM4 14h-2v-2h2v2zM15 14h-10v-2h10v2zM18 14h-2v-2h2v2zM15 11v-2h2v2h-2zM18 8h-4v-2h4v2z"></path>
</symbol>
<symbol id="icon-list" viewBox="0 0 20 20">
<path d="M14.4 9h-5.8c-0.552 0-0.6 0.447-0.6 1s0.048 1 0.6 1h5.8c0.552 0 0.6-0.447 0.6-1s-0.048-1-0.6-1zM16.4 14h-7.8c-0.552 0-0.6 0.447-0.6 1s0.048 1 0.6 1h7.8c0.552 0 0.6-0.447 0.6-1s-0.048-1-0.6-1zM8.6 6h7.8c0.552 0 0.6-0.447 0.6-1s-0.048-1-0.6-1h-7.8c-0.552 0-0.6 0.447-0.6 1s0.048 1 0.6 1zM5.4 9h-1.8c-0.552 0-0.6 0.447-0.6 1s0.048 1 0.6 1h1.8c0.552 0 0.6-0.447 0.6-1s-0.048-1-0.6-1zM5.4 14h-1.8c-0.552 0-0.6 0.447-0.6 1s0.048 1 0.6 1h1.8c0.552 0 0.6-0.447 0.6-1s-0.048-1-0.6-1zM5.4 4h-1.8c-0.552 0-0.6 0.447-0.6 1s0.048 1 0.6 1h1.8c0.552 0 0.6-0.447 0.6-1s-0.048-1-0.6-1z"></path>
</symbol>
<symbol id="icon-location-pin" viewBox="0 0 20 20">
<path d="M10 2.009c-2.762 0-5 2.229-5 4.99 0 4.774 5 11 5 11s5-6.227 5-11c0-2.76-2.238-4.99-5-4.99zM10 9.76c-1.492 0-2.7-1.209-2.7-2.7s1.208-2.7 2.7-2.7c1.49 0 2.699 1.209 2.699 2.7s-1.209 2.7-2.699 2.7z"></path>
</symbol>
<symbol id="icon-lock-open" viewBox="0 0 20 20">
<path d="M15.8 8h-1.8v-2.4c0-2.897-1.335-4.6-4-4.6s-4 1.703-4 4.6v0.4h2v-0.801c0-1.445 0.797-2.199 2-2.199s2 0.754 2 2.199v2.801h-8c-0.553 0-1 0.646-1 1.199v7.801c0 0.549 0.428 1.139 0.951 1.307l1.197 0.387c0.524 0.167 1.402 0.306 1.952 0.306h5.8c0.549 0 1.428-0.139 1.951-0.307l1.196-0.387c0.524-0.167 0.953-0.757 0.953-1.306v-7.801c0-0.553-0.648-1.199-1.2-1.199z"></path>
</symbol>
<symbol id="icon-lock" viewBox="0 0 20 20">
<path d="M15.8 8h-1.8v-2.4c0-2.897-1.335-4.6-4-4.6s-4 1.703-4 4.6v2.4h-2c-0.553 0-1 0.646-1 1.199v7.801c0 0.549 0.428 1.139 0.951 1.307l1.197 0.387c0.524 0.167 1.402 0.306 1.952 0.306h5.8c0.549 0 1.428-0.139 1.951-0.307l1.196-0.387c0.524-0.167 0.953-0.757 0.953-1.306v-7.801c0-0.553-0.648-1.199-1.2-1.199zM12 8h-4v-2.801c0-1.445 0.797-2.199 2-2.199s2 0.754 2 2.199v2.801z"></path>
</symbol>
<symbol id="icon-magnifying-glass" viewBox="0 0 20 20">
<path d="M17.545 15.467l-3.779-3.779c0.57-0.935 0.898-2.035 0.898-3.21 0-3.417-2.961-6.377-6.378-6.377s-6.186 2.769-6.186 6.186c0 3.416 2.961 6.377 6.377 6.377 1.137 0 2.2-0.309 3.115-0.844l3.799 3.801c0.372 0.371 0.975 0.371 1.346 0l0.943-0.943c0.371-0.371 0.236-0.84-0.135-1.211zM4.004 8.287c0-2.366 1.917-4.283 4.282-4.283s4.474 2.107 4.474 4.474c0 2.365-1.918 4.283-4.283 4.283s-4.473-2.109-4.473-4.474z"></path>
</symbol>
<symbol id="icon-mail" viewBox="0 0 20 20">
<path d="M1.574 5.286c0.488 0.262 7.248 3.894 7.5 4.029s0.578 0.199 0.906 0.199c0.328 0 0.654-0.064 0.906-0.199s7.012-3.767 7.5-4.029c0.489-0.263 0.951-1.286 0.054-1.286h-16.919c-0.897 0-0.435 1.023 0.053 1.286zM18.613 7.489c-0.555 0.289-7.387 3.849-7.727 4.027s-0.578 0.199-0.906 0.199-0.566-0.021-0.906-0.199-7.133-3.739-7.688-4.028c-0.39-0.204-0.386 0.035-0.386 0.219s0 7.293 0 7.293c0 0.42 0.566 1 1 1h16c0.434 0 1-0.58 1-1 0 0 0-7.108 0-7.292s0.004-0.423-0.387-0.219z"></path>
</symbol>
<symbol id="icon-map" viewBox="0 0 20 20">
<path d="M19.447 3.718l-6-3c-0.281-0.141-0.613-0.141-0.895 0l-5.63 2.815-5.606-1.869c-0.306-0.102-0.64-0.051-0.901 0.138s-0.415 0.49-0.415 0.811v13.001c0 0.379 0.214 0.725 0.553 0.894l6 3c0.141 0.070 0.294 0.106 0.447 0.106s0.307-0.035 0.447-0.106l5.63-2.814 5.606 1.869c0.305 0.1 0.64 0.049 0.901-0.139s0.415-0.49 0.415-0.81v-13.002c0.001-0.379-0.213-0.725-0.552-0.894zM8 5.231l4-2v11.763l-4 2v-11.763zM2 4l4 1.333v11.661l-4-2v-10.994zM18 16.227l-4-1.334v-11.662l4 2v10.996z"></path>
</symbol>
<symbol id="icon-menu" viewBox="0 0 20 20">
<path d="M16.4 9h-12.8c-0.552 0-0.6 0.447-0.6 1s0.048 1 0.6 1h12.8c0.552 0 0.6-0.447 0.6-1s-0.048-1-0.6-1zM16.4 13h-12.8c-0.552 0-0.6 0.447-0.6 1s0.048 1 0.6 1h12.8c0.552 0 0.6-0.447 0.6-1s-0.048-1-0.6-1zM3.6 7h12.8c0.552 0 0.6-0.447 0.6-1s-0.048-1-0.6-1h-12.8c-0.552 0-0.6 0.447-0.6 1s0.048 1 0.6 1z"></path>
</symbol>
<symbol id="icon-message" viewBox="0 0 20 20">
<path d="M18 6v7c0 1.1-0.9 2-2 2h-4v3l-4-3h-4c-1.101 0-2-0.9-2-2v-7c0-1.1 0.899-2 2-2h12c1.1 0 2 0.9 2 2z"></path>
</symbol>
<symbol id="icon-network" viewBox="0 0 20 20">
<path d="M5.274 6.915c0.2 0 0.394 0.029 0.576 0.086 0.69-0.773 1.455-1.477 2.283-2.1-0.035-0.146-0.054-0.299-0.054-0.455 0-0.217 0.036-0.426 0.102-0.621-0.929-0.664-1.937-1.223-3.011-1.654-1.005 0.621-1.882 1.431-2.582 2.381 0.519 0.92 1.136 1.777 1.838 2.557 0.256-0.124 0.543-0.194 0.848-0.194zM3.316 8.872c0-0.275 0.058-0.537 0.159-0.773-0.628-0.692-1.197-1.436-1.695-2.229-0.625 1.242-0.98 2.645-0.98 4.131 0 1.719 0.474 3.328 1.295 4.705 0.294-1.654 0.851-3.219 1.62-4.652-0.25-0.328-0.399-0.739-0.399-1.182zM10.036 2.489c0.517 0 0.985 0.201 1.336 0.529 1.021-0.439 2.096-0.777 3.215-0.992-1.351-0.779-2.917-1.226-4.587-1.226-1.139 0-2.229 0.209-3.236 0.588 0.799 0.395 1.561 0.855 2.277 1.375 0.292-0.174 0.631-0.274 0.995-0.274zM12.962 11.708c0.122-0.254 0.295-0.479 0.509-0.656-0.578-1.777-1.493-3.404-2.672-4.803-0.234 0.1-0.492 0.154-0.764 0.154-0.425 0-0.816-0.137-1.137-0.365-0.71 0.539-1.367 1.143-1.964 1.803 0.188 0.299 0.297 0.652 0.297 1.031 0 0.203-0.031 0.4-0.090 0.586 1.717 1.146 3.694 1.934 5.821 2.25zM15.501 14.351c0.026 0.371 0.041 0.744 0.041 1.121 0 0.664-0.042 1.318-0.122 1.961 1.56-1.139 2.748-2.758 3.347-4.639-0.71 0.172-1.438 0.295-2.181 0.365-0.173 0.537-0.572 0.969-1.085 1.192zM12.504 13.024c-2.272-0.377-4.377-1.244-6.21-2.484-0.298 0.182-0.647 0.289-1.021 0.289-0.139 0-0.272-0.014-0.402-0.041-0.877 1.662-1.438 3.517-1.599 5.484 0.876 0.94 1.944 1.697 3.145 2.205 1.492-2.293 3.576-4.189 6.087-5.453zM16.176 3.181c-1.475 0.143-2.883 0.514-4.193 1.068 0.006 0.066 0.010 0.131 0.010 0.197 0 0.309-0.074 0.6-0.201 0.859 1.311 1.539 2.327 3.33 2.969 5.291 0.797 0.016 1.477 0.502 1.77 1.195 0.886-0.090 1.748-0.26 2.578-0.504 0.060-0.42 0.092-0.85 0.092-1.287-0.001-2.704-1.167-5.136-3.025-6.819zM13.489 14.069c-2.344 1.098-4.304 2.789-5.723 4.856 0.715 0.179 1.463 0.275 2.234 0.275 1.387 0 2.702-0.309 3.882-0.859 0.19-0.928 0.29-1.887 0.29-2.869 0-0.355-0.016-0.707-0.043-1.055-0.236-0.076-0.453-0.193-0.64-0.348z"></path>
</symbol>
<symbol id="icon-old-phone" viewBox="0 0 20 20">
<path d="M17.256 12.253c-0.096-0.667-0.611-1.187-1.274-1.342-2.577-0.604-3.223-2.088-3.332-3.734-0.457-0.085-1.27-0.177-2.65-0.177s-2.193 0.092-2.65 0.177c-0.109 1.646-0.755 3.13-3.332 3.734-0.663 0.156-1.178 0.675-1.274 1.342l-0.497 3.442c-0.175 1.212 0.715 2.305 1.953 2.305h11.6c1.237 0 2.128-1.093 1.953-2.305l-0.497-3.442zM10 15.492c-1.395 0-2.526-1.12-2.526-2.5s1.131-2.5 2.526-2.5 2.526 1.12 2.526 2.5-1.132 2.5-2.526 2.5zM19.95 6c-0.024-1.5-3.842-3.999-9.95-4-6.109 0.001-9.927 2.5-9.95 4s0.021 3.452 2.535 3.127c2.941-0.381 2.76-1.408 2.76-2.876 0-1.024 2.392-1.271 4.655-1.271s4.654 0.247 4.655 1.271c0 1.468-0.181 2.495 2.76 2.876 2.513 0.325 2.558-1.627 2.535-3.127z"></path>
</symbol>
<symbol id="icon-paper-plane" viewBox="0 0 20 20">
<path d="M18.64 2.634c-0.344 0.121-17.321 6.104-17.656 6.222-0.284 0.1-0.347 0.345-0.010 0.479 0.401 0.161 3.796 1.521 3.796 1.521v0l2.25 0.901c0 0 10.838-7.958 10.984-8.066 0.148-0.108 0.318 0.095 0.211 0.211s-7.871 8.513-7.871 8.513v0.002l-0.452 0.503 0.599 0.322c0 0 4.65 2.504 4.982 2.682 0.291 0.156 0.668 0.027 0.752-0.334 0.099-0.426 2.845-12.261 2.906-12.525 0.079-0.343-0.148-0.552-0.491-0.431zM7 17.162c0 0.246 0.139 0.315 0.331 0.141 0.251-0.229 2.85-2.561 2.85-2.561l-3.181-1.644v4.064z"></path>
</symbol>
<symbol id="icon-pencil" viewBox="0 0 20 20">
<path d="M14.69 2.661c-1.894-1.379-3.242-1.349-3.754-1.266-0.144 0.023-0.265 0.106-0.35 0.223l-6.883 9.497c-0.277 0.382-0.437 0.836-0.462 1.307l-0.296 5.624c-0.021 0.405 0.382 0.698 0.76 0.553l5.256-2.010c0.443-0.17 0.828-0.465 1.106-0.849l6.88-9.494c0.089-0.123 0.125-0.273 0.1-0.423-0.084-0.526-0.487-1.802-2.357-3.162zM8.977 15.465l-2.043 0.789c-0.080 0.031-0.169 0.006-0.221-0.062-0.263-0.335-0.576-0.667-1.075-1.030-0.499-0.362-0.911-0.558-1.31-0.706-0.080-0.030-0.131-0.106-0.126-0.192l0.122-2.186 0.549-0.755c0 0 1.229-0.169 2.833 0.998 1.602 1.166 1.821 2.388 1.821 2.388l-0.55 0.756z"></path>
</symbol>
<symbol id="icon-phone" viewBox="0 0 20 20">
<path d="M11.229 11.229c-1.583 1.582-3.417 3.096-4.142 2.371-1.037-1.037-1.677-1.941-3.965-0.102-2.287 1.838-0.53 3.064 0.475 4.068 1.16 1.16 5.484 0.062 9.758-4.211 4.273-4.274 5.368-8.598 4.207-9.758-1.005-1.006-2.225-2.762-4.063-0.475s-0.936 2.927 0.103 3.965c0.722 0.725-0.791 2.559-2.373 4.142z"></path>
</symbol>
<symbol id="icon-pin" viewBox="0 0 20 20">
<path d="M4.774 15.287l-2.105 3.25 0.224 1.063 1.060-0.227 2.104-3.248c-0.224-0.12-0.446-0.248-0.661-0.39-0.218-0.141-0.426-0.292-0.622-0.448zM13.686 14.152c0.014-0.029 0.023-0.061 0.036-0.092 0.053-0.117 0.1-0.234 0.138-0.357 0.006-0.022 0.009-0.044 0.016-0.064 0.039-0.136 0.072-0.27 0.098-0.408 0-0.007 0-0.012 0-0.021 0.195-1.169-0.145-2.473-0.923-3.651l1.11-1.714c1.279 0.163 2.385-0.159 2.917-0.982 0.923-1.423-0.2-3.792-2.505-5.293-2.307-1.502-4.923-1.565-5.844-0.144-0.534 0.824-0.378 1.967 0.293 3.073l-1.112 1.714c-1.389-0.233-2.716-0.016-3.703 0.64-0.006 0.002-0.013 0.004-0.017 0.008-0.115 0.078-0.227 0.164-0.332 0.254-0.017 0.014-0.037 0.027-0.051 0.041-0.098 0.084-0.186 0.178-0.271 0.272-0.020 0.024-0.048 0.045-0.067 0.070-0.106 0.121-0.204 0.249-0.29 0.385-1.384 2.133-0.203 5.361 2.633 7.209 2.838 1.848 6.26 1.614 7.641-0.519 0.087-0.135 0.167-0.276 0.233-0.421zM12.871 4.194c-0.887-0.577-1.32-1.487-0.965-2.036 0.354-0.547 1.361-0.522 2.246 0.055 0.889 0.577 1.318 1.489 0.965 2.036s-1.358 0.522-2.246-0.055z"></path>
</symbol>
<symbol id="icon-print" viewBox="0 0 20 20">
<path d="M1.501 6h17c0.57 0 0.477-0.608 0.193-0.707-0.285-0.099-3.443-1.293-3.994-1.293h-0.7v-3h-8v3h-0.699c-0.55 0-3.709 1.194-3.993 1.293s-0.377 0.707 0.193 0.707zM19 7h-18c-0.55 0-1 0.45-1 1v5c0 0.551 0.45 1 1 1h2.283l-0.882 5h15.199l-0.883-5h2.283c0.551 0 1-0.449 1-1v-5c0-0.55-0.449-1-1-1zM4.603 17l1.198-7.003h8.399l1.199 7.003h-10.796z"></path>
</symbol>
<symbol id="icon-quote" viewBox="0 0 20 20">
<path d="M5.315 3.401c-1.61 0-2.916 1.343-2.916 3s1.306 3 2.916 3c2.915 0 0.972 5.799-2.916 5.799v1.4c6.939 0.001 9.658-13.199 2.916-13.199zM13.715 3.401c-1.609 0-2.915 1.343-2.915 3s1.306 3 2.915 3c2.916 0 0.973 5.799-2.915 5.799v1.4c6.938 0.001 9.657-13.199 2.915-13.199z"></path>
</symbol>
<symbol id="icon-reply-all" viewBox="0 0 20 20">
<path d="M7.225 5.767v-2.681l-7.225 6.456 7.225 6.691v-2.777l-4.225-3.914 4.225-3.775zM12.225 6.953v-3.867l-7.225 6.456 7.225 6.691v-4.357c3.292 0 5.291 0.422 7.775 4.81 0-0.001-0.368-9.733-7.775-9.733z"></path>
</symbol>
<symbol id="icon-reply" viewBox="0 0 20 20">
<path d="M19 16.685c0 0-2.225-9.732-11-9.732v-3.984l-7 6.573 7 6.69v-4.357c4.763-0.001 8.516 0.421 11 4.81z"></path>
</symbol>
<symbol id="icon-share-alternitive" viewBox="0 0 20 20">
<path d="M9 13h2v-9h2l-3-4-3 4h2v9zM17 7h-3v2h2v9h-12v-9h2v-2h-3c-0.553 0-1 0.447-1 1v11c0 0.552 0.447 1 1 1h14c0.553 0 1-0.448 1-1v-11c0-0.552-0.447-1-1-1z"></path>
</symbol>
<symbol id="icon-share" viewBox="0 0 20 20">
<path d="M15 13.442c-0.633 0-1.204 0.246-1.637 0.642l-5.938-3.463c0.046-0.188 0.075-0.384 0.075-0.584s-0.029-0.395-0.075-0.583l5.875-3.429c0.446 0.417 1.042 0.675 1.7 0.675 1.379 0 2.5-1.121 2.5-2.5s-1.121-2.5-2.5-2.5-2.5 1.121-2.5 2.5c0 0.2 0.029 0.396 0.075 0.583l-5.875 3.429c-0.446-0.416-1.042-0.675-1.7-0.675-1.379 0-2.5 1.121-2.5 2.5s1.121 2.5 2.5 2.5c0.658 0 1.254-0.258 1.7-0.675l5.938 3.463c-0.042 0.175-0.067 0.358-0.067 0.546 0 1.342 1.087 2.429 2.429 2.429s2.429-1.088 2.429-2.429-1.087-2.429-2.429-2.429z"></path>
</symbol>
<symbol id="icon-shopping-cart" viewBox="0 0 20 20">
<path d="M13 17c0 1.104 0.894 2 2 2 1.104 0 2-0.896 2-2 0-1.106-0.896-2-2-2-1.106 0-2 0.894-2 2zM3 17c0 1.104 0.895 2 2 2 1.103 0 2-0.896 2-2 0-1.106-0.897-2-2-2-1.105 0-2 0.894-2 2zM6.547 12.172l11.068-3.162c0.211-0.061 0.385-0.289 0.385-0.51v-5.5h-14v-1.6c0-0.22-0.181-0.4-0.399-0.4h-3.202c-0.219 0-0.399 0.18-0.399 0.4v1.6h2l1.91 8.957 0.090 0.943v1.649c0 0.219 0.18 0.4 0.4 0.4h13.2c0.22 0 0.4-0.182 0.4-0.4v-1.549h-11.248c-1.15 0-1.174-0.551-0.205-0.828z"></path>
</symbol>
<symbol id="icon-shuffle" viewBox="0 0 20 20">
<path d="M15.093 6.694h0.92v2.862l3.987-4.024-3.988-4.025v2.387h-0.92c-3.694 0-5.776 2.738-7.614 5.152-1.652 2.172-3.080 4.049-5.386 4.049h-2.092v2.799h2.093c3.694 0 5.776-2.736 7.614-5.152 1.652-2.173 3.080-4.048 5.386-4.048zM5.41 8.458c0.158-0.203 0.316-0.412 0.477-0.623 0.39-0.514 0.804-1.055 1.252-1.596-1.322-1.234-2.915-2.144-5.046-2.144h-2.093v2.799h2.093c1.327 0 2.362 0.623 3.317 1.564zM16.012 13.294h-0.92c-1.407 0-2.487-0.701-3.491-1.738-0.1 0.131-0.201 0.264-0.303 0.397-0.441 0.58-0.915 1.201-1.439 1.818 1.356 1.324 3 2.324 5.232 2.324h0.92v2.398l3.989-4.025-3.988-4.025v2.851z"></path>
</symbol>
<symbol id="icon-squared-cross" viewBox="0 0 20 20">
<path d="M16 2h-12c-1.1 0-2 0.9-2 2v12c0 1.1 0.9 2 2 2h12c1.1 0 2-0.9 2-2v-12c0-1.1-0.9-2-2-2zM13.061 14.789l-3.061-3.060-3.061 3.060-1.729-1.728 3.061-3.061-3.060-3.061 1.729-1.729 3.060 3.061 3.059-3.061 1.729 1.729-3.059 3.061 3.060 3.061-1.728 1.728z"></path>
</symbol>
<symbol id="icon-squared-minus" viewBox="0 0 20 20">
<path d="M16 2h-12c-1.1 0-2 0.9-2 2v12c0 1.1 0.9 2 2 2h12c1.1 0 2-0.9 2-2v-12c0-1.1-0.9-2-2-2zM15 11h-10v-2h10v2z"></path>
</symbol>
<symbol id="icon-squared-plus" viewBox="0 0 20 20">
<path d="M16 2h-12c-1.1 0-2 0.9-2 2v12c0 1.1 0.9 2 2 2h12c1.1 0 2-0.9 2-2v-12c0-1.1-0.9-2-2-2zM15 11h-4v4h-2v-4h-4v-2h4v-4h2v4h4v2z"></path>
</symbol>
<symbol id="icon-star-outlined" viewBox="0 0 20 20">
<path d="M18.8 8.022h-6.413l-2.387-6.722-2.389 6.722h-6.412l5.232 3.947-1.871 6.929 5.44-4.154 5.438 4.154-1.869-6.929 5.231-3.947zM10 12.783l-3.014 2.5 1.243-3.562-2.851-2.3 3.522 0.101 1.1-4.040 1.099 4.040 3.521-0.101-2.851 2.3 1.243 3.562-3.012-2.5z"></path>
</symbol>
<symbol id="icon-star" viewBox="0 0 20 20">
<path d="M10 1.3l2.388 6.722h6.412l-5.232 3.948 1.871 6.928-5.439-4.154-5.438 4.154 1.87-6.928-5.233-3.948h6.412l2.389-6.722z"></path>
</symbol>
<symbol id="icon-thumbs-down" viewBox="0 0 20 20">
<path d="M6.352 12.638c0.133 0.356-3.539 3.634-1.397 6.291 0.501 0.621 2.201-2.975 4.615-4.602 1.331-0.899 4.43-2.811 4.43-3.868v-6.842c0-1.271-4.914-2.617-8.648-2.617-1.369 0-3.352 8.576-3.352 9.939 0 1.367 4.221 1.343 4.352 1.699zM15 12.543c0.658 0 3-0.4 3-3.123v-4.848c0-2.721-2.342-3.021-3-3.021-0.657 0 1 0.572 1 2.26v6.373c0 1.768-1.657 2.359-1 2.359z"></path>
</symbol>
<symbol id="icon-thumbs-up" viewBox="0 0 20 20">
<path d="M13.648 7.362c-0.133-0.355 3.539-3.634 1.398-6.291-0.501-0.621-2.201 2.975-4.615 4.603-1.332 0.898-4.431 2.81-4.431 3.867v6.842c0 1.271 4.914 2.617 8.648 2.617 1.369 0 3.352-8.576 3.352-9.938 0-1.368-4.221-1.344-4.352-1.7zM5 7.457c-0.658 0-3 0.4-3 3.123v4.848c0 2.721 2.342 3.021 3 3.021 0.657 0-1-0.572-1-2.26v-6.373c0-1.768 1.657-2.359 1-2.359z"></path>
</symbol>
<symbol id="icon-typing" viewBox="0 0 20 20">
<path d="M16 4h-12c-1.101 0-2 0.9-2 2v7c0 1.1 0.899 2 2 2h4l4 3v-3h4c1.1 0 2-0.9 2-2v-7c0-1.1-0.9-2-2-2zM6 10.6c-0.607 0-1.1-0.492-1.1-1.1s0.492-1.1 1.1-1.1 1.1 0.492 1.1 1.1c0 0.607-0.493 1.1-1.1 1.1zM10 10.6c-0.607 0-1.1-0.492-1.1-1.1s0.492-1.1 1.1-1.1 1.1 0.492 1.1 1.1c0 0.607-0.493 1.1-1.1 1.1zM14 10.6c-0.607 0-1.1-0.492-1.1-1.1s0.492-1.1 1.1-1.1 1.1 0.492 1.1 1.1c0 0.607-0.493 1.1-1.1 1.1z"></path>
</symbol>
<symbol id="icon-user" viewBox="0 0 20 20">
<path d="M7.725 2.146c-1.016 0.756-1.289 1.953-1.239 2.59 0.064 0.779 0.222 1.793 0.222 1.793s-0.313 0.17-0.313 0.854c0.109 1.717 0.683 0.976 0.801 1.729 0.284 1.814 0.933 1.491 0.933 2.481 0 1.649-0.68 2.42-2.803 3.334-2.13 0.918-4.326 2.073-4.326 4.073v1h18v-1c0-2-2.197-3.155-4.328-4.072-2.123-0.914-2.801-1.684-2.801-3.334 0-0.99 0.647-0.667 0.932-2.481 0.119-0.753 0.692-0.012 0.803-1.729 0-0.684-0.314-0.854-0.314-0.854s0.158-1.014 0.221-1.793c0.065-0.817-0.398-2.561-2.3-3.096-0.333-0.34-0.558-0.881 0.466-1.424-2.24-0.105-2.761 1.067-3.954 1.929z"></path>
</symbol>
<symbol id="icon-users" viewBox="0 0 20 20">
<path d="M15.989 19.129c0-2.246-2.187-3.389-4.317-4.307-2.123-0.914-2.801-1.684-2.801-3.334 0-0.989 0.648-0.667 0.932-2.481 0.12-0.752 0.692-0.012 0.802-1.729 0-0.684-0.313-0.854-0.313-0.854s0.159-1.013 0.221-1.793c0.064-0.817-0.398-2.56-2.301-3.095-0.332-0.341-0.557-0.882 0.467-1.424-2.24-0.104-2.761 1.068-3.954 1.93-1.015 0.756-1.289 1.953-1.24 2.59 0.065 0.78 0.223 1.793 0.223 1.793s-0.314 0.17-0.314 0.854c0.11 1.718 0.684 0.977 0.803 1.729 0.284 1.814 0.933 1.492 0.933 2.481 0 1.65-0.212 2.21-2.336 3.124-2.131 0.917-2.794 2.387-2.783 4.516 0.003 0.637-0.011 0.871-0.011 0.871h16c0 0-0.011-0.234-0.011-0.871zM18.528 13.365c-1.135-0.457-1.605-1.002-1.605-2.066 0-0.641 0.418-0.432 0.602-1.603 0.077-0.484 0.447-0.008 0.518-1.115 0-0.441-0.202-0.551-0.202-0.551s0.103-0.656 0.143-1.159c0.050-0.627-0.364-2.247-2.268-2.247s-2.318 1.62-2.269 2.247c0.042 0.502 0.144 1.159 0.144 1.159s-0.202 0.109-0.202 0.551c0.071 1.107 0.441 0.631 0.518 1.115 0.184 1.172 0.602 0.963 0.602 1.603 0 1.064-0.438 1.562-1.809 2.152-0.069 0.029-0.12 0.068-0.183 0.102 1.64 0.712 4.226 1.941 4.838 4.447h2.645c0 0 0-1.906 0-2.318 0-1-0.273-1.834-1.472-2.317z"></path>
</symbol>
<symbol id="icon-behance" viewBox="0 0 20 20">
<path d="M8.072 9.301c0 0 1.892-0.147 1.892-2.459 0-2.315-1.548-3.441-3.51-3.441h-6.454v12.926h6.454c0 0 3.941 0.129 3.941-3.816-0.001-0.001 0.171-3.21-2.323-3.21zM2.844 5.697h3.61c0 0 0.878 0 0.878 1.344 0 1.346-0.516 1.541-1.102 1.541h-3.386v-2.885zM6.271 14.029h-3.427v-3.455h3.61c0 0 1.308-0.018 1.308 1.775 0 1.512-0.977 1.669-1.491 1.68zM15.649 6.688c-4.771 0-4.767 4.967-4.767 4.967s-0.326 4.941 4.767 4.941c0 0 4.243 0.254 4.243-3.437h-2.182c0 0 0.072 1.391-1.988 1.391 0 0-2.184 0.152-2.184-2.25h6.423c0.001-0.001 0.709-5.612-4.312-5.612zM17.59 10.574h-4.074c0 0 0.266-1.992 2.182-1.992s1.892 1.992 1.892 1.992zM18.097 4.16h-5.117v1.594h5.117v-1.594z"></path>
</symbol>
<symbol id="icon-creative-cloud" viewBox="0 0 20 20">
<path d="M12.6 3c-1.966 0-3.74 0.813-5.012 2.119-0.384-0.078-0.781-0.119-1.188-0.119-3.314 0-6 2.686-6 6s2.686 6 6 6h6.2c3.866 0 7-3.134 7-7s-3.134-7-7-7zM6.4 15.728c-1.263 0-2.45-0.492-3.344-1.385-0.892-0.893-1.384-2.081-1.384-3.343s0.492-2.45 1.385-3.343c0.893-0.893 2.080-1.385 3.343-1.385s2.45 0.492 3.344 1.385l1.874 1.875c0.273 0.273 0.273 0.716 0 0.99s-0.718 0.273-0.99 0l-1.874-1.876c-1.258-1.256-3.449-1.256-4.707 0-0.629 0.63-0.975 1.465-0.975 2.354s0.346 1.724 0.975 2.354c0.785 0.784 1.933 1.078 2.991 0.884 0.324 0.424 0.689 0.815 1.1 1.155-0.547 0.216-1.133 0.335-1.738 0.335zM16.689 14.089c-1.093 1.092-2.545 1.694-4.089 1.694s-2.997-0.602-4.090-1.694l-2.709-2.709c-0.273-0.273-0.273-0.717 0-0.99s0.717-0.273 0.99 0l2.709 2.709c0.828 0.828 1.929 1.284 3.1 1.284s2.271-0.456 3.099-1.284 1.284-1.929 1.284-3.099-0.456-2.271-1.284-3.099-1.928-1.284-3.099-1.284c-0.873 0-1.707 0.255-2.418 0.727-0.381-0.309-0.802-0.569-1.251-0.779 1.035-0.858 2.309-1.349 3.67-1.349 1.544 0 2.996 0.602 4.089 1.694s1.694 2.545 1.694 4.089-0.602 2.998-1.695 4.090z"></path>
</symbol>
<symbol id="icon-paypal" viewBox="0 0 20 20">
<path d="M7.914 10.677h1.659c3.604 0 5.649-1.623 6.3-4.96 0.021-0.11 0.040-0.216 0.056-0.322 0.036-0.226 0.054-0.429 0.062-0.624 0.006-0.134 0.010-0.213 0.009-0.287-0.008-0.391-0.077-0.722-0.216-1.039-0.129-0.296-0.324-0.587-0.613-0.918-0.853-0.97-2.339-1.527-4.114-1.527h-5.653c-0.398 0-0.737 0.29-0.799 0.683l-1.020 6.571-1.269 8.185c-0.046 0.295 0.182 0.561 0.48 0.561h2.772l0.849-5.043c0.117-0.74 0.747-1.28 1.497-1.28zM17.017 6.090c-0.792 3.771-3.357 5.772-7.445 5.772h-1.658c-0.164 0-0.302 0.118-0.328 0.282l-1.105 6.856h2.907c0.348 0 0.645-0.253 0.699-0.597l0.029-0.15 0.555-3.514 0.036-0.194c0.054-0.344 0.351-0.597 0.699-0.597h0.44c2.85 0 5.081-1.158 5.733-4.506 0.268-1.38 0.132-2.534-0.562-3.352z"></path>
</symbol>
<symbol id="icon-vk-alternitive" viewBox="0 0 20 20">
<path d="M19 17v-14c0-1.1-0.903-2-2.005-2h-13.99c-1.15 0-2.005 0.853-2.005 2v14c0 1.148 0.855 2 2.005 2h13.99c1.102 0 2.005-0.899 2.005-2zM15.184 11.607c0 0 1.132 1.117 1.411 1.635 0.008 0.011 0.011 0.021 0.014 0.025 0.113 0.19 0.142 0.34 0.085 0.45-0.094 0.183-0.414 0.275-0.523 0.283 0 0-1.943 0-1.999 0-0.14 0-0.43-0.036-0.782-0.279-0.27-0.188-0.537-0.499-0.797-0.802-0.388-0.45-0.724-0.84-1.062-0.84-0.043 0-0.086 0.007-0.126 0.021-0.257 0.082-0.583 0.447-0.583 1.422 0 0.305-0.24 0.479-0.41 0.479 0 0-0.872 0-0.916 0-0.312 0-1.937-0.109-3.376-1.628-1.766-1.86-3.352-5.591-3.366-5.624-0.1-0.241 0.107-0.372 0.332-0.372h2.020c0.271 0 0.358 0.164 0.42 0.311 0.070 0.167 0.334 0.841 0.766 1.599 0.703 1.233 1.136 1.735 1.481 1.735 0.064 0 0.126-0.017 0.184-0.049 0.451-0.249 0.367-1.857 0.347-2.189 0-0.063-0.001-0.719-0.231-1.034-0.166-0.228-0.447-0.315-0.617-0.348 0.045-0.065 0.142-0.166 0.266-0.226 0.309-0.154 0.866-0.176 1.42-0.176h0.308c0.601 0.008 0.757 0.047 0.974 0.102 0.439 0.105 0.448 0.39 0.409 1.36-0.011 0.276-0.023 0.589-0.023 0.956 0 0.079-0.003 0.166-0.003 0.256-0.014 0.496-0.030 1.057 0.32 1.287 0.046 0.028 0.097 0.044 0.151 0.044 0.122 0 0.487 0 1.476-1.697 0.435-0.749 0.77-1.633 0.793-1.699 0.020-0.036 0.079-0.142 0.148-0.183 0.056-0.033 0.128-0.039 0.166-0.039h2.375c0.26 0 0.436 0.039 0.469 0.138 0.057 0.159-0.011 0.644-1.096 2.11-0.184 0.243-0.343 0.455-0.483 0.64-0.984 1.288-0.984 1.354 0.058 2.332z"></path>
</symbol>
<symbol id="icon-vk" viewBox="0 0 20 20">
<path d="M17.802 12.298c0 0 1.617 1.597 2.017 2.336 0.011 0.016 0.016 0.028 0.018 0.035 0.163 0.273 0.203 0.487 0.123 0.645-0.135 0.261-0.592 0.392-0.747 0.403 0 0-2.778 0-2.858 0-0.199 0-0.613-0.052-1.117-0.4-0.385-0.269-0.768-0.712-1.139-1.145-0.554-0.643-1.033-1.201-1.518-1.201-0.062 0-0.122 0.010-0.18 0.030-0.367 0.116-0.833 0.639-0.833 2.032 0 0.436-0.344 0.684-0.585 0.684 0 0-1.248 0-1.309 0-0.446 0-2.768-0.156-4.827-2.327-2.523-2.658-4.789-7.99-4.811-8.037-0.141-0.345 0.155-0.533 0.475-0.533h2.886c0.387 0 0.513 0.234 0.601 0.444 0.102 0.241 0.48 1.205 1.1 2.288 1.004 1.762 1.621 2.479 2.114 2.479 0.093 0 0.181-0.023 0.264-0.070 0.644-0.354 0.524-2.654 0.494-3.128 0-0.092-0.001-1.027-0.331-1.479-0.236-0.324-0.638-0.45-0.881-0.496 0.065-0.094 0.203-0.238 0.38-0.323 0.441-0.22 1.238-0.252 2.029-0.252h0.439c0.858 0.012 1.080 0.067 1.392 0.146 0.628 0.15 0.64 0.557 0.585 1.943-0.016 0.396-0.033 0.842-0.033 1.367 0 0.112-0.005 0.237-0.005 0.364-0.019 0.711-0.044 1.512 0.458 1.841 0.064 0.040 0.139 0.062 0.217 0.062 0.174 0 0.695 0 2.108-2.425 0.62-1.071 1.1-2.334 1.133-2.429 0.028-0.053 0.112-0.202 0.214-0.262 0.078-0.048 0.182-0.056 0.236-0.056h3.395c0.37 0 0.621 0.056 0.67 0.196 0.082 0.227-0.016 0.92-1.566 3.016-0.261 0.349-0.49 0.651-0.691 0.915-1.405 1.844-1.405 1.937 0.083 3.337z"></path>
</symbol>
<symbol id="icon-dribbble" viewBox="0 0 20 20">
<path d="M9.565 7.421c-1.358-2.414-2.811-4.383-2.917-4.528-2.191 1.036-3.826 3.055-4.337 5.487 0.206 0.004 3.482 0.043 7.254-0.959zM10.543 10.061c0.102-0.033 0.206-0.064 0.309-0.094-0.197-0.447-0.412-0.895-0.637-1.336-4.046 1.212-7.928 1.124-8.065 1.12-0.003 0.084-0.007 0.166-0.007 0.25 0 2.019 0.763 3.861 2.016 5.252l-0.005-0.006c0 0 2.15-3.814 6.389-5.186zM5.171 16.194v-0.004c-0.058-0.045-0.12-0.086-0.178-0.135 0.106 0.085 0.178 0.139 0.178 0.139zM8.118 2.372c-0.007 0.002-0.015 0.004-0.015 0.004 0.006-0.002 0.014-0.002 0.014-0.002l0.001-0.002zM15.189 4.104c-1.384-1.218-3.199-1.961-5.189-1.961-0.639 0-1.258 0.078-1.852 0.221 0.12 0.16 1.595 2.119 2.938 4.584 2.962-1.109 4.081-2.812 4.103-2.844zM10 19.2c-5.080 0-9.199-4.119-9.199-9.199-0.001-5.082 4.118-9.201 9.199-9.201s9.2 4.119 9.2 9.201c0 5.080-4.118 9.199-9.2 9.199zM11.336 11.286c-4.611 1.607-6.134 4.838-6.165 4.904 1.334 1.041 3.006 1.666 4.828 1.666 1.088 0 2.125-0.221 3.067-0.621-0.116-0.689-0.573-3.096-1.679-5.967-0.016 0.006-0.033 0.012-0.051 0.018zM11.69 8.12c0.184 0.373 0.358 0.754 0.523 1.139 0.059 0.135 0.114 0.272 0.17 0.406 2.713-0.342 5.385 0.238 5.473 0.256-0.019-1.863-0.686-3.572-1.787-4.912-0.018 0.023-1.279 1.843-4.379 3.111zM12.861 10.905c1.031 2.836 1.449 5.142 1.529 5.611 1.764-1.191 3.018-3.080 3.367-5.27-0.156-0.050-2.356-0.747-4.896-0.341z"></path>
</symbol>
<symbol id="icon-facebook" viewBox="0 0 20 20">
<path d="M17 1h-14c-1.1 0-2 0.9-2 2v14c0 1.101 0.9 2 2 2h7v-7h-2v-2.475h2v-2.050c0-2.164 1.212-3.684 3.766-3.684l1.803 0.002v2.605h-1.197c-0.994 0-1.372 0.746-1.372 1.438v1.69h2.568l-0.568 2.474h-2v7h4c1.1 0 2-0.899 2-2v-14c0-1.1-0.9-2-2-2z"></path>
</symbol>
<symbol id="icon-instagram" viewBox="0 0 20 20">
<path d="M17 1h-14c-1.1 0-2 0.9-2 2v14c0 1.101 0.9 2 2 2h14c1.1 0 2-0.899 2-2v-14c0-1.1-0.9-2-2-2zM9.984 15.523c3.059 0 5.538-2.481 5.538-5.539 0-0.338-0.043-0.664-0.103-0.984h1.581v7.216c0 0.382-0.31 0.69-0.693 0.69h-12.614c-0.383 0-0.693-0.308-0.693-0.69v-7.216h1.549c-0.061 0.32-0.104 0.646-0.104 0.984 0 3.059 2.481 5.539 5.539 5.539zM6.523 9.984c0-1.912 1.55-3.461 3.462-3.461s3.462 1.549 3.462 3.461-1.551 3.462-3.462 3.462c-1.913 0-3.462-1.55-3.462-3.462zM16.307 6h-1.615c-0.382 0-0.692-0.312-0.692-0.692v-1.617c0-0.382 0.31-0.691 0.691-0.691h1.615c0.384 0 0.694 0.309 0.694 0.691v1.616c0 0.381-0.31 0.693-0.693 0.693z"></path>
</symbol>
<symbol id="icon-linkedin-with-circle" viewBox="0 0 20 20">
<path d="M10 0.4c-5.302 0-9.6 4.298-9.6 9.6s4.298 9.6 9.6 9.6 9.6-4.298 9.6-9.6-4.298-9.6-9.6-9.6zM7.65 13.979h-1.944v-6.256h1.944v6.256zM6.666 6.955c-0.614 0-1.011-0.435-1.011-0.973 0-0.549 0.409-0.971 1.036-0.971s1.011 0.422 1.023 0.971c0 0.538-0.396 0.973-1.048 0.973zM14.75 13.979h-1.944v-3.467c0-0.807-0.282-1.355-0.985-1.355-0.537 0-0.856 0.371-0.997 0.728-0.052 0.127-0.065 0.307-0.065 0.486v3.607h-1.945v-4.26c0-0.781-0.025-1.434-0.051-1.996h1.689l0.089 0.869h0.039c0.256-0.408 0.883-1.010 1.932-1.010 1.279 0 2.238 0.857 2.238 2.699v3.699z"></path>
</symbol>
<symbol id="icon-pinterest" viewBox="0 0 20 20">
<path d="M8.617 13.227c-0.526 2.754-1.167 5.394-3.068 6.773-0.586-4.162 0.861-7.287 1.534-10.605-1.147-1.93 0.138-5.812 2.555-4.855 2.975 1.176-2.576 7.172 1.15 7.922 3.891 0.781 5.479-6.75 3.066-9.199-3.485-3.538-10.146-0.083-9.326 4.982 0.199 1.238 1.478 1.613 0.511 3.322-2.231-0.494-2.897-2.254-2.811-4.6 0.138-3.84 3.449-6.527 6.771-6.9 4.201-0.471 8.144 1.543 8.689 5.494 0.613 4.461-1.896 9.293-6.389 8.945-1.218-0.095-1.728-0.699-2.682-1.279z"></path>
</symbol>
<symbol id="icon-twitter" viewBox="0 0 20 20">
<path d="M17.316 6.246c0.008 0.162 0.011 0.326 0.011 0.488 0 4.99-3.797 10.742-10.74 10.742-2.133 0-4.116-0.625-5.787-1.697 0.296 0.035 0.596 0.053 0.9 0.053 1.77 0 3.397-0.604 4.688-1.615-1.651-0.031-3.046-1.121-3.526-2.621 0.23 0.043 0.467 0.066 0.71 0.066 0.345 0 0.679-0.045 0.995-0.131-1.727-0.348-3.028-1.873-3.028-3.703 0-0.016 0-0.031 0-0.047 0.509 0.283 1.092 0.453 1.71 0.473-1.013-0.678-1.68-1.832-1.68-3.143 0-0.691 0.186-1.34 0.512-1.898 1.861 2.285 4.644 3.787 7.781 3.945-0.064-0.277-0.097-0.564-0.097-0.861 0-2.084 1.689-3.773 3.774-3.773 1.086 0 2.067 0.457 2.756 1.191 0.859-0.17 1.667-0.484 2.397-0.916-0.282 0.881-0.881 1.621-1.66 2.088 0.764-0.092 1.49-0.293 2.168-0.594-0.506 0.758-1.146 1.422-1.884 1.953z"></path>
</symbol>
<symbol id="icon-youtube" viewBox="0 0 20 20">
<path d="M10 2.3c-9.828 0-10 0.874-10 7.7s0.172 7.7 10 7.7 10-0.874 10-7.7-0.172-7.7-10-7.7zM13.205 10.334l-4.49 2.096c-0.393 0.182-0.715-0.022-0.715-0.456v-3.948c0-0.433 0.322-0.638 0.715-0.456l4.49 2.096c0.393 0.184 0.393 0.484 0 0.668z"></path>
</symbol>
<symbol id="icon-coin-dollar" viewBox="0 0 32 32">
<path d="M15 2c-8.284 0-15 6.716-15 15s6.716 15 15 15c8.284 0 15-6.716 15-15s-6.716-15-15-15zM15 29c-6.627 0-12-5.373-12-12s5.373-12 12-12c6.627 0 12 5.373 12 12s-5.373 12-12 12zM16 16v-4h4v-2h-4v-2h-2v2h-4v8h4v4h-4v2h4v2h2v-2h4l-0-8h-4zM14 16h-2v-4h2v4zM18 22h-2v-4h2v4z"></path>
</symbol>
<symbol id="icon-coin-euro" viewBox="0 0 32 32">
<path d="M15 2c-8.284 0-15 6.716-15 15s6.716 15 15 15c8.284 0 15-6.716 15-15s-6.716-15-15-15zM15 29c-6.627 0-12-5.373-12-12s5.373-12 12-12c6.627 0 12 5.373 12 12s-5.373 12-12 12z"></path>
<path d="M20.963 20.136c-0.477-0.278-1.089-0.116-1.367 0.362-0.539 0.927-1.534 1.503-2.596 1.503h-4c-1.304 0-2.415-0.836-2.828-2h4.828c0.552 0 1-0.448 1-1s-0.448-1-1-1h-5v-2h5c0.552 0 1-0.448 1-1s-0.448-1-1-1h-4.828c0.413-1.164 1.524-2 2.828-2h4c1.062 0 2.057 0.576 2.596 1.503 0.278 0.477 0.89 0.639 1.367 0.361s0.639-0.89 0.361-1.367c-0.896-1.54-2.553-2.497-4.325-2.497h-4c-2.415 0-4.435 1.72-4.899 4h-1.101c-0.552 0-1 0.448-1 1s0.448 1 1 1h1v2h-1c-0.552 0-1 0.448-1 1s0.448 1 1 1h1.101c0.465 2.279 2.485 4 4.899 4h4c1.772 0 3.429-0.957 4.325-2.497 0.278-0.477 0.116-1.090-0.362-1.367z"></path>
</symbol>
<symbol id="icon-coin-pound" viewBox="0 0 32 32">
<path d="M15 2c-8.284 0-15 6.716-15 15s6.716 15 15 15c8.284 0 15-6.716 15-15s-6.716-15-15-15zM15 29c-6.627 0-12-5.373-12-12s5.373-12 12-12c6.627 0 12 5.373 12 12s-5.373 12-12 12z"></path>
<path d="M19 22h-7v-4h3c0.552 0 1-0.448 1-1s-0.448-1-1-1h-3v-1c0-1.654 1.346-3 3-3 1.068 0 2.064 0.575 2.599 1.501 0.277 0.478 0.888 0.641 1.366 0.365s0.641-0.888 0.365-1.366c-0.892-1.542-2.551-2.499-4.331-2.499-2.757 0-5 2.243-5 5v1h-1c-0.552 0-1 0.448-1 1s0.448 1 1 1h1v6h9c0.552 0 1-0.448 1-1s-0.448-1-1-1z"></path>
</symbol>
<symbol id="icon-coin-yen" viewBox="0 0 32 32">
<path d="M15 2c-8.284 0-15 6.716-15 15s6.716 15 15 15c8.284 0 15-6.716 15-15s-6.716-15-15-15zM15 29c-6.627 0-12-5.373-12-12s5.373-12 12-12c6.627 0 12 5.373 12 12s-5.373 12-12 12z"></path>
<path d="M19 18c0.552 0 1-0.448 1-1s-0.448-1-1-1h-2.131l2.963-4.445c0.306-0.46 0.182-1.080-0.277-1.387s-1.080-0.182-1.387 0.277l-3.168 4.752-3.168-4.752c-0.306-0.46-0.927-0.584-1.387-0.277s-0.584 0.927-0.277 1.387l2.964 4.445h-2.132c-0.552 0-1 0.448-1 1s0.448 1 1 1h3v2h-3c-0.552 0-1 0.448-1 1s0.448 1 1 1h3v3c0 0.552 0.448 1 1 1s1-0.448 1-1v-3h3c0.552 0 1-0.448 1-1s-0.448-1-1-1h-3v-2h3z"></path>
</symbol>
<symbol id="icon-trophy" viewBox="0 0 32 32">
<path d="M26 6v-4h-20v4h-6v4c0 3.314 2.686 6 6 6 0.627 0 1.232-0.096 1.801-0.275 1.443 2.063 3.644 3.556 6.199 4.075v6.2h-2c-2.209 0-4 1.791-4 4h16c0-2.209-1.791-4-4-4h-2v-6.2c2.555-0.519 4.756-2.012 6.199-4.075 0.568 0.179 1.173 0.275 1.801 0.275 3.314 0 6-2.686 6-6v-4h-6zM6 13.625c-1.999 0-3.625-1.626-3.625-3.625v-2h3.625v2c0 1.256 0.232 2.457 0.655 3.565-0.213 0.039-0.431 0.060-0.655 0.060zM29.625 10c0 1.999-1.626 3.625-3.625 3.625-0.224 0-0.442-0.021-0.655-0.060 0.423-1.107 0.655-2.309 0.655-3.565v-2h3.625v2z"></path>
</symbol>
<symbol id="icon-sphere" viewBox="0 0 32 32">
<path d="M15 2c-8.284 0-15 6.716-15 15s6.716 15 15 15c8.284 0 15-6.716 15-15s-6.716-15-15-15zM23.487 22c0.268-1.264 0.437-2.606 0.492-4h3.983c-0.104 1.381-0.426 2.722-0.959 4h-3.516zM6.513 12c-0.268 1.264-0.437 2.606-0.492 4h-3.983c0.104-1.381 0.426-2.722 0.959-4h3.516zM21.439 12c0.3 1.28 0.481 2.62 0.54 4h-5.979v-4h5.439zM16 10v-5.854c0.456 0.133 0.908 0.355 1.351 0.668 0.831 0.586 1.625 1.488 2.298 2.609 0.465 0.775 0.867 1.638 1.203 2.578h-4.852zM10.351 7.422c0.673-1.121 1.467-2.023 2.298-2.609 0.443-0.313 0.895-0.535 1.351-0.668v5.854h-4.852c0.336-0.94 0.738-1.803 1.203-2.578zM14 12v4h-5.979c0.059-1.38 0.24-2.72 0.54-4h5.439zM2.997 22c-0.533-1.278-0.854-2.619-0.959-4h3.983c0.055 1.394 0.224 2.736 0.492 4h-3.516zM8.021 18h5.979v4h-5.439c-0.3-1.28-0.481-2.62-0.54-4zM14 24v5.854c-0.456-0.133-0.908-0.355-1.351-0.668-0.831-0.586-1.625-1.488-2.298-2.609-0.465-0.775-0.867-1.638-1.203-2.578h4.852zM19.649 26.578c-0.673 1.121-1.467 2.023-2.298 2.609-0.443 0.312-0.895 0.535-1.351 0.668v-5.854h4.852c-0.336 0.94-0.738 1.802-1.203 2.578zM16 22v-4h5.979c-0.059 1.38-0.24 2.72-0.54 4h-5.439zM23.98 16c-0.055-1.394-0.224-2.736-0.492-4h3.516c0.533 1.278 0.855 2.619 0.959 4h-3.983zM25.958 10h-2.997c-0.582-1.836-1.387-3.447-2.354-4.732 1.329 0.636 2.533 1.488 3.585 2.54 0.671 0.671 1.261 1.404 1.766 2.192zM5.808 7.808c1.052-1.052 2.256-1.904 3.585-2.54-0.967 1.285-1.771 2.896-2.354 4.732h-2.997c0.504-0.788 1.094-1.521 1.766-2.192zM4.042 24h2.997c0.583 1.836 1.387 3.447 2.354 4.732-1.329-0.636-2.533-1.488-3.585-2.54-0.671-0.671-1.261-1.404-1.766-2.192zM24.192 26.192c-1.052 1.052-2.256 1.904-3.585 2.54 0.967-1.285 1.771-2.896 2.354-4.732h2.997c-0.504 0.788-1.094 1.521-1.766 2.192z"></path>
</symbol>
<symbol id="icon-behance2" viewBox="0 0 32 32">
<path d="M12.631 14.019c0.406-0.294 0.6-0.781 0.6-1.456 0-0.375-0.063-0.681-0.194-0.919-0.137-0.238-0.313-0.425-0.544-0.556-0.225-0.137-0.481-0.231-0.775-0.281-0.287-0.056-0.594-0.081-0.906-0.081h-3.294v3.737h3.563c0.625 0.006 1.144-0.144 1.55-0.444z"></path>
<path d="M13.188 17.394c-0.463-0.35-1.075-0.525-1.838-0.525h-3.831v4.406h3.756c0.35 0 0.675-0.031 0.988-0.1s0.594-0.175 0.831-0.337c0.238-0.156 0.431-0.369 0.575-0.637s0.213-0.619 0.213-1.038c0-0.825-0.231-1.413-0.694-1.769z"></path>
<path d="M29 0h-26c-1.65 0-3 1.35-3 3v26c0 1.65 1.35 3 3 3h26c1.65 0 3-1.35 3-3v-26c0-1.65-1.35-3-3-3zM20.975 8.419h6.481v1.581h-6.481v-1.581zM16.925 21.45c-0.313 0.594-0.738 1.075-1.262 1.45-0.531 0.375-1.137 0.65-1.819 0.831-0.675 0.181-1.375 0.269-2.088 0.269h-7.756v-15.994h7.537c0.762 0 1.456 0.069 2.088 0.2 0.625 0.131 1.162 0.356 1.613 0.662 0.444 0.306 0.794 0.713 1.044 1.219 0.244 0.5 0.369 1.131 0.369 1.875 0 0.806-0.181 1.475-0.55 2.012s-0.906 0.975-1.631 1.319c0.988 0.281 1.713 0.781 2.194 1.487 0.488 0.712 0.725 1.569 0.725 2.569 0.006 0.819-0.15 1.519-0.462 2.1zM29.981 18.975h-8.356c0 0.913 0.313 1.781 0.788 2.25 0.475 0.462 1.163 0.7 2.056 0.7 0.644 0 1.194-0.163 1.663-0.488 0.462-0.325 0.744-0.669 0.85-1.025h2.8c-0.45 1.394-1.131 2.387-2.063 2.988-0.919 0.6-2.044 0.9-3.35 0.9-0.913 0-1.731-0.15-2.469-0.438-0.738-0.294-1.35-0.706-1.869-1.244-0.506-0.538-0.894-1.181-1.175-1.931-0.275-0.744-0.419-1.575-0.419-2.469 0-0.869 0.144-1.675 0.425-2.425 0.288-0.75 0.688-1.4 1.212-1.938 0.525-0.544 1.15-0.975 1.875-1.294 0.725-0.313 1.525-0.469 2.413-0.469 0.981 0 1.837 0.188 2.575 0.575 0.731 0.381 1.331 0.894 1.806 1.537s0.806 1.375 1.019 2.2c0.206 0.813 0.275 1.669 0.219 2.569z"></path>
<path d="M24.269 14.494c-0.506 0-0.931 0.088-1.262 0.262s-0.6 0.387-0.806 0.637c-0.206 0.256-0.344 0.525-0.425 0.819-0.081 0.281-0.131 0.538-0.144 0.762h5.175c-0.075-0.813-0.356-1.412-0.731-1.831-0.387-0.425-1.025-0.65-1.806-0.65z"></path>
</symbol>
</defs>
</svg>
